RopaSans-RegularItalic.ufo
<glyph name="exclam" format="1">
  <advance width="211"/>
  <unicode hex="0021"/>
  <outline>
    <contour>
      <point x="210" y="695" type="line"/>
      <point x="115" y="695" type="line"/>
      <point x="53" y="200" type="line"/>
      <point x="134" y="200" type="line"/>
    </contour>
    <contour>
      <point x="76" y="108" type="curve" smooth="yes"/>
      <point x="38" y="108"/>
      <point x="21" y="94"/>
      <point x="17" y="59" type="curve" smooth="yes"/>
      <point x="14" y="36" type="line" smooth="yes"/>
      <point x="10" y="9"/>
      <point x="29" y="-12"/>
      <point x="66" y="-12" type="curve" smooth="yes"/>
      <point x="105" y="-12"/>
      <point x="121" y="3"/>
      <point x="125" y="30" type="curve" smooth="yes"/>
      <point x="129" y="59" type="line" smooth="yes"/>
      <point x="133" y="88"/>
      <point x="113" y="108"/>
    </contour>
  </outline>
</glyph>
<glyph name="quotedbl" format="1">
  <advance width="315"/>
  <unicode hex="0022"/>
  <outline>
    <contour>
      <point x="325" y="683" type="line"/>
      <point x="240" y="683" type="line"/>
      <point x="205" y="429" type="line"/>
      <point x="290" y="429" type="line"/>
    </contour>
    <contour>
      <point x="185" y="683" type="line"/>
      <point x="100" y="683" type="line"/>
      <point x="65" y="429" type="line"/>
      <point x="150" y="429" type="line"/>
    </contour>
  </outline>
</glyph>
<glyph name="percent" format="1">
  <advance width="860"/>
  <unicode hex="0025"/>
  <outline>
    <contour>
      <point x="697" y="613" type="line"/>
      <point x="606" y="613" type="line"/>
      <point x="185" y="0" type="line"/>
      <point x="276" y="0" type="line"/>
    </contour>
    <contour>
      <point x="245" y="625" type="curve" smooth="yes"/>
      <point x="140" y="625"/>
      <point x="88" y="578"/>
      <point x="71" y="476" type="curve" smooth="yes"/>
      <point x="66" y="446" type="line" smooth="yes"/>
      <point x="49" y="344"/>
      <point x="102" y="275"/>
      <point x="207" y="275" type="curve" smooth="yes"/>
      <point x="309" y="275"/>
      <point x="367" y="327"/>
      <point x="381" y="431" type="curve"/>
      <point x="385" y="461" type="line" smooth="yes"/>
      <point x="399" y="565"/>
      <point x="349" y="625"/>
    </contour>
    <contour>
      <point x="237" y="550" type="curve" smooth="yes"/>
      <point x="286" y="550"/>
      <point x="308" y="524"/>
      <point x="300" y="463" type="curve" smooth="yes"/>
      <point x="296" y="433" type="line" smooth="yes"/>
      <point x="288" y="374"/>
      <point x="263" y="350"/>
      <point x="215" y="350" type="curve" smooth="yes"/>
      <point x="164" y="350"/>
      <point x="143" y="379"/>
      <point x="151" y="438" type="curve" smooth="yes"/>
      <point x="155" y="468" type="line" smooth="yes"/>
      <point x="163" y="526"/>
      <point x="189" y="550"/>
    </contour>
    <contour>
      <point x="676" y="338" type="curve" smooth="yes"/>
      <point x="571" y="338"/>
      <point x="519" y="291"/>
      <point x="502" y="189" type="curve" smooth="yes"/>
      <point x="497" y="159" type="line" smooth="yes"/>
      <point x="480" y="57"/>
      <point x="533" y="-12"/>
      <point x="638" y="-12" type="curve" smooth="yes"/>
      <point x="740" y="-12"/>
      <point x="798" y="40"/>
      <point x="812" y="144" type="curve"/>
      <point x="816" y="174" type="line" smooth="yes"/>
      <point x="830" y="278"/>
      <point x="780" y="338"/>
    </contour>
    <contour>
      <point x="668" y="263" type="curve" smooth="yes"/>
      <point x="717" y="263"/>
      <point x="739" y="237"/>
      <point x="731" y="176" type="curve" smooth="yes"/>
      <point x="727" y="146" type="line" smooth="yes"/>
      <point x="719" y="87"/>
      <point x="694" y="63"/>
      <point x="646" y="63" type="curve" smooth="yes"/>
      <point x="595" y="63"/>
      <point x="574" y="92"/>
      <point x="582" y="151" type="curve" smooth="yes"/>
      <point x="586" y="181" type="line" smooth="yes"/>
      <point x="594" y="239"/>
      <point x="620" y="263"/>
    </contour>
  </outline>
</glyph>
<glyph name="quotesingle" format="1">
  <advance width="175"/>
  <unicode hex="0027"/>
  <outline>
    <contour>
      <point x="185" y="683" type="line"/>
      <point x="100" y="683" type="line"/>
      <point x="65" y="429" type="line"/>
      <point x="150" y="429" type="line"/>
    </contour>
  </outline>
</glyph>
<glyph name="parenleft" format="1">
  <advance width="231"/>
  <unicode hex="0028"/>
  <outline>
    <contour>
      <point x="308" y="749" type="line"/>
      <point x="168" y="767"/>
      <point x="135" y="737"/>
      <point x="114" y="590" type="curve" smooth="yes"/>
      <point x="42" y="90" type="line" smooth="yes"/>
      <point x="21" y="-57"/>
      <point x="45" y="-94"/>
      <point x="187" y="-94" type="curve"/>
      <point x="197" y="-22" type="line"/>
      <point x="120" y="-19"/>
      <point x="114" y="-3"/>
      <point x="124" y="70" type="curve" smooth="yes"/>
      <point x="203" y="619" type="line" smooth="yes"/>
      <point x="211" y="677"/>
      <point x="226" y="688"/>
      <point x="298" y="677" type="curve"/>
    </contour>
  </outline>
</glyph>
<glyph name="parenright" format="1">
  <advance width="231"/>
  <unicode hex="0029"/>
  <outline>
    <contour>
      <point x="45" y="677" type="line"/>
      <point x="122" y="674"/>
      <point x="128" y="658"/>
      <point x="118" y="585" type="curve" smooth="yes"/>
      <point x="40" y="36" type="line" smooth="yes"/>
      <point x="32" y="-22"/>
      <point x="17" y="-33"/>
      <point x="-55" y="-22" type="curve"/>
      <point x="-65" y="-94" type="line"/>
      <point x="75" y="-112"/>
      <point x="108" y="-82"/>
      <point x="129" y="65" type="curve"/>
      <point x="200" y="565" type="line"/>
      <point x="221" y="712"/>
      <point x="197" y="749"/>
      <point x="55" y="749" type="curve"/>
    </contour>
  </outline>
</glyph>
<glyph name="plus" format="1">
  <advance width="390"/>
  <unicode hex="002B"/>
  <outline>
    <contour>
      <point x="261" y="488" type="line"/>
      <point x="185" y="488" type="line"/>
      <point x="164" y="336" type="line"/>
      <point x="24" y="336" type="line"/>
      <point x="14" y="265" type="line"/>
      <point x="154" y="265" type="line"/>
      <point x="132" y="113" type="line"/>
      <point x="208" y="113" type="line"/>
      <point x="230" y="265" type="line"/>
      <point x="370" y="265" type="line"/>
      <point x="380" y="336" type="line"/>
      <point x="240" y="336" type="line"/>
    </contour>
  </outline>
</glyph>
<glyph name="hyphen" format="1">
  <advance width="350"/>
  <unicode hex="002D"/>
  <outline>
    <contour>
      <point x="291" y="328" type="line"/>
      <point x="71" y="328" type="line"/>
      <point x="61" y="263" type="line"/>
      <point x="281" y="263" type="line"/>
    </contour>
  </outline>
</glyph>
<glyph name="period" format="1">
  <advance width="221"/>
  <unicode hex="002E"/>
  <outline>
    <contour>
      <point x="81" y="108" type="curve" smooth="yes"/>
      <point x="43" y="108"/>
      <point x="26" y="94"/>
      <point x="22" y="59" type="curve" smooth="yes"/>
      <point x="19" y="36" type="line" smooth="yes"/>
      <point x="15" y="9"/>
      <point x="34" y="-12"/>
      <point x="71" y="-12" type="curve" smooth="yes"/>
      <point x="110" y="-12"/>
      <point x="126" y="3"/>
      <point x="130" y="30" type="curve" smooth="yes"/>
      <point x="134" y="59" type="line" smooth="yes"/>
      <point x="138" y="88"/>
      <point x="118" y="108"/>
    </contour>
  </outline>
</glyph>
<glyph name="slash" format="1">
  <advance width="275"/>
  <unicode hex="002F"/>
  <outline>
    <contour>
      <point x="335" y="683" type="line"/>
      <point x="250" y="683" type="line"/>
      <point x="-50" y="0" type="line"/>
      <point x="35" y="0" type="line"/>
    </contour>
  </outline>
</glyph>
<glyph name="zero" format="1">
  <advance width="500"/>
  <unicode hex="0030"/>
  <outline>
    <contour>
      <point x="290" y="613" type="curve" smooth="yes"/>
      <point x="172" y="613"/>
      <point x="101" y="549"/>
      <point x="82" y="411" type="curve" smooth="yes"/>
      <point x="52" y="196" type="line" smooth="yes"/>
      <point x="33" y="63"/>
      <point x="91" y="-12"/>
      <point x="214" y="-12" type="curve" smooth="yes"/>
      <point x="332" y="-12"/>
      <point x="403" y="52"/>
      <point x="422" y="190" type="curve"/>
      <point x="452" y="405" type="line" smooth="yes"/>
      <point x="472" y="545"/>
      <point x="407" y="613"/>
    </contour>
    <contour>
      <point x="283" y="541" type="curve" smooth="yes"/>
      <point x="345" y="541"/>
      <point x="380" y="502"/>
      <point x="368" y="413" type="curve" smooth="yes"/>
      <point x="336" y="182" type="line" smooth="yes"/>
      <point x="324" y="96"/>
      <point x="285" y="60"/>
      <point x="221" y="60" type="curve" smooth="yes"/>
      <point x="157" y="60"/>
      <point x="124" y="102"/>
      <point x="136" y="188" type="curve" smooth="yes"/>
      <point x="168" y="419" type="line" smooth="yes"/>
      <point x="180" y="505"/>
      <point x="219" y="541"/>
    </contour>
  </outline>
</glyph>
<glyph name="one" format="1">
  <advance width="312"/>
  <unicode hex="0031"/>
  <outline>
    <contour>
      <point x="281" y="601" type="line"/>
      <point x="206" y="601" type="line"/>
      <point x="35" y="535" type="line"/>
      <point x="41" y="462" type="line"/>
      <point x="182" y="519" type="line"/>
      <point x="184" y="519" type="line"/>
      <point x="112" y="0" type="line"/>
      <point x="197" y="0" type="line"/>
    </contour>
  </outline>
</glyph>
<glyph name="two" format="1">
  <advance width="387"/>
  <unicode hex="0032"/>
  <outline>
    <contour>
      <point x="204" y="613" type="curve" smooth="yes"/>
      <point x="169" y="613"/>
      <point x="113" y="603"/>
      <point x="68" y="588" type="curve"/>
      <point x="58" y="511" type="line"/>
      <point x="101" y="529"/>
      <point x="151" y="543"/>
      <point x="190" y="543" type="curve" smooth="yes"/>
      <point x="259" y="543"/>
      <point x="288" y="516"/>
      <point x="278" y="452" type="curve" smooth="yes"/>
      <point x="275" y="432" type="line" smooth="yes"/>
      <point x="269" y="393"/>
      <point x="252" y="359"/>
      <point x="214" y="318" type="curve" smooth="yes"/>
      <point x="-21" y="62" type="line"/>
      <point x="-30" y="0" type="line"/>
      <point x="297" y="0" type="line"/>
      <point x="306" y="71" type="line"/>
      <point x="80" y="71" type="line"/>
      <point x="251" y="248" type="line" smooth="yes"/>
      <point x="328" y="328"/>
      <point x="353" y="376"/>
      <point x="361" y="433" type="curve" smooth="yes"/>
      <point x="364" y="455" type="line" smooth="yes"/>
      <point x="378" y="555"/>
      <point x="321" y="613"/>
    </contour>
  </outline>
</glyph>
<glyph name="three" format="1">
  <advance width="387"/>
  <unicode hex="0033"/>
  <outline>
    <contour>
      <point x="202" y="613" type="curve" smooth="yes"/>
      <point x="167" y="613"/>
      <point x="119" y="606"/>
      <point x="74" y="596" type="curve"/>
      <point x="64" y="527" type="line"/>
      <point x="100" y="536"/>
      <point x="153" y="548"/>
      <point x="192" y="548" type="curve" smooth="yes"/>
      <point x="250" y="548"/>
      <point x="280" y="516"/>
      <point x="271" y="455" type="curve" smooth="yes"/>
      <point x="270" y="448" type="line" smooth="yes"/>
      <point x="260" y="378"/>
      <point x="227" y="343"/>
      <point x="162" y="343" type="curve" smooth="yes"/>
      <point x="73" y="343" type="line"/>
      <point x="63" y="277" type="line"/>
      <point x="152" y="277" type="line" smooth="yes"/>
      <point x="219" y="277"/>
      <point x="252" y="241"/>
      <point x="243" y="172" type="curve" smooth="yes"/>
      <point x="240" y="150" type="line" smooth="yes"/>
      <point x="231" y="89"/>
      <point x="190" y="56"/>
      <point x="126" y="56" type="curve" smooth="yes"/>
      <point x="87" y="56"/>
      <point x="33" y="71"/>
      <point x="-1" y="85" type="curve"/>
      <point x="-10" y="14" type="line"/>
      <point x="33" y="-2"/>
      <point x="91" y="-12"/>
      <point x="126" y="-12" type="curve" smooth="yes"/>
      <point x="248" y="-12"/>
      <point x="317" y="54"/>
      <point x="327" y="156" type="curve" smooth="yes"/>
      <point x="328" y="166" type="line" smooth="yes"/>
      <point x="335" y="232"/>
      <point x="303" y="289"/>
      <point x="247" y="311" type="curve"/>
      <point x="308" y="333"/>
      <point x="344" y="380"/>
      <point x="354" y="448" type="curve" smooth="yes"/>
      <point x="355" y="455" type="line" smooth="yes"/>
      <point x="368" y="548"/>
      <point x="308" y="613"/>
    </contour>
  </outline>
</glyph>
<glyph name="four" format="1">
  <advance width="423"/>
  <unicode hex="0034"/>
  <outline>
    <contour>
      <point x="396" y="601" type="line"/>
      <point x="299" y="601" type="line"/>
      <point x="-17" y="188" type="line"/>
      <point x="-25" y="129" type="line"/>
      <point x="247" y="129" type="line"/>
      <point x="229" y="0" type="line"/>
      <point x="312" y="0" type="line"/>
      <point x="330" y="129" type="line"/>
      <point x="391" y="129" type="line"/>
      <point x="400" y="199" type="line"/>
      <point x="339" y="199" type="line"/>
    </contour>
    <contour>
      <point x="300" y="504" type="line"/>
      <point x="259" y="213" type="line"/>
      <point x="257" y="199" type="line"/>
      <point x="75" y="199" type="line"/>
    </contour>
  </outline>
</glyph>
<glyph name="six" format="1">
  <advance width="475"/>
  <unicode hex="0036"/>
  <outline>
    <contour>
      <point x="295" y="612" type="curve" smooth="yes"/>
      <point x="168" y="612"/>
      <point x="97" y="546"/>
      <point x="71" y="364" type="curve" smooth="yes"/>
      <point x="51" y="224" type="line" smooth="yes"/>
      <point x="28" y="65"/>
      <point x="90" y="-12"/>
      <point x="218" y="-12" type="curve" smooth="yes"/>
      <point x="339" y="-12"/>
      <point x="397" y="52"/>
      <point x="414" y="173" type="curve" smooth="yes"/>
      <point x="419" y="207" type="line" smooth="yes"/>
      <point x="436" y="327"/>
      <point x="384" y="389"/>
      <point x="289" y="389" type="curve" smooth="yes"/>
      <point x="251" y="389"/>
      <point x="202" y="371"/>
      <point x="150" y="322" type="curve"/>
      <point x="156" y="365" type="line" smooth="yes"/>
      <point x="175" y="502"/>
      <point x="214" y="542"/>
      <point x="291" y="542" type="curve" smooth="yes"/>
      <point x="321" y="542"/>
      <point x="373" y="531"/>
      <point x="418" y="518" type="curve"/>
      <point x="428" y="592" type="line"/>
      <point x="399" y="600"/>
      <point x="339" y="612"/>
    </contour>
    <contour>
      <point x="268" y="315" type="curve" smooth="yes"/>
      <point x="316" y="315"/>
      <point x="346" y="277"/>
      <point x="335" y="210" type="curve" smooth="yes"/>
      <point x="328" y="168" type="line" smooth="yes"/>
      <point x="316" y="93"/>
      <point x="284" y="60"/>
      <point x="219" y="60" type="curve" smooth="yes"/>
      <point x="154" y="60"/>
      <point x="120" y="107"/>
      <point x="132" y="192" type="curve" smooth="yes"/>
      <point x="140" y="250" type="line"/>
      <point x="183" y="291"/>
      <point x="230" y="315"/>
    </contour>
  </outline>
</glyph>
<glyph name="seven" format="1">
  <advance width="378"/>
  <unicode hex="0037"/>
  <outline>
    <contour>
      <point x="409" y="600" type="line"/>
      <point x="48" y="600" type="line"/>
      <point x="38" y="527" type="line"/>
      <point x="309" y="527" type="line"/>
      <point x="309" y="525" type="line"/>
      <point x="12" y="0" type="line"/>
      <point x="101" y="0" type="line"/>
      <point x="401" y="539" type="line"/>
    </contour>
  </outline>
</glyph>
<glyph name="eight" format="1">
  <advance width="460"/>
  <unicode hex="0038"/>
  <outline>
    <contour>
      <point x="268" y="613" type="curve" smooth="yes"/>
      <point x="164" y="613"/>
      <point x="103" y="567"/>
      <point x="87" y="472" type="curve" smooth="yes"/>
      <point x="86" y="466" type="line" smooth="yes"/>
      <point x="76" y="409"/>
      <point x="98" y="355"/>
      <point x="143" y="328" type="curve"/>
      <point x="69" y="302"/>
      <point x="31" y="250"/>
      <point x="22" y="182" type="curve" smooth="yes"/>
      <point x="20" y="167" type="line" smooth="yes"/>
      <point x="6" y="60"/>
      <point x="75" y="-12"/>
      <point x="203" y="-12" type="curve" smooth="yes"/>
      <point x="329" y="-12"/>
      <point x="398" y="51"/>
      <point x="411" y="154" type="curve" smooth="yes"/>
      <point x="413" y="170" type="line" smooth="yes"/>
      <point x="421" y="237"/>
      <point x="396" y="292"/>
      <point x="338" y="319" type="curve"/>
      <point x="389" y="344"/>
      <point x="412" y="381"/>
      <point x="422" y="438" type="curve" smooth="yes"/>
      <point x="423" y="444" type="line" smooth="yes"/>
      <point x="440" y="545"/>
      <point x="372" y="613"/>
    </contour>
    <contour>
      <point x="229" y="287" type="curve" smooth="yes"/>
      <point x="300" y="287"/>
      <point x="337" y="244"/>
      <point x="327" y="175" type="curve" smooth="yes"/>
      <point x="324" y="155" type="line" smooth="yes"/>
      <point x="315" y="94"/>
      <point x="279" y="59"/>
      <point x="207" y="59" type="curve" smooth="yes"/>
      <point x="135" y="59"/>
      <point x="97" y="104"/>
      <point x="107" y="174" type="curve" smooth="yes"/>
      <point x="108" y="181" type="line" smooth="yes"/>
      <point x="117" y="247"/>
      <point x="160" y="287"/>
    </contour>
    <contour>
      <point x="263" y="547" type="curve" smooth="yes"/>
      <point x="322" y="547"/>
      <point x="352" y="515"/>
      <point x="341" y="446" type="curve" smooth="yes"/>
      <point x="340" y="440" type="line" smooth="yes"/>
      <point x="328" y="371"/>
      <point x="305" y="353"/>
      <point x="247" y="353" type="curve" smooth="yes"/>
      <point x="185" y="353"/>
      <point x="160" y="382"/>
      <point x="170" y="456" type="curve" smooth="yes"/>
      <point x="171" y="462" type="line" smooth="yes"/>
      <point x="181" y="522"/>
      <point x="211" y="547"/>
    </contour>
  </outline>
</glyph>
<glyph name="nine" format="1">
  <advance width="475"/>
  <unicode hex="0039"/>
  <outline>
    <contour>
      <point x="266" y="612" type="curve" smooth="yes"/>
      <point x="143" y="612"/>
      <point x="81" y="554"/>
      <point x="65" y="435" type="curve" smooth="yes"/>
      <point x="61" y="404" type="line" smooth="yes"/>
      <point x="44" y="274"/>
      <point x="96" y="211"/>
      <point x="183" y="211" type="curve" smooth="yes"/>
      <point x="227" y="211"/>
      <point x="276" y="234"/>
      <point x="329" y="278" type="curve"/>
      <point x="318" y="202" type="line" smooth="yes"/>
      <point x="303" y="96"/>
      <point x="261" y="60"/>
      <point x="184" y="60" type="curve" smooth="yes"/>
      <point x="156" y="60"/>
      <point x="92" y="73"/>
      <point x="61" y="86" type="curve"/>
      <point x="51" y="11" type="line"/>
      <point x="76" y="2"/>
      <point x="138" y="-12"/>
      <point x="182" y="-12" type="curve" smooth="yes"/>
      <point x="315" y="-12"/>
      <point x="382" y="48"/>
      <point x="404" y="202" type="curve"/>
      <point x="432" y="408" type="line" smooth="yes"/>
      <point x="450" y="537"/>
      <point x="386" y="612"/>
    </contour>
    <contour>
      <point x="259" y="540" type="curve" smooth="yes"/>
      <point x="324" y="540"/>
      <point x="361" y="499"/>
      <point x="350" y="423" type="curve" smooth="yes"/>
      <point x="339" y="350" type="line"/>
      <point x="296" y="315"/>
      <point x="249" y="285"/>
      <point x="211" y="285" type="curve" smooth="yes"/>
      <point x="165" y="285"/>
      <point x="132" y="323"/>
      <point x="144" y="401" type="curve" smooth="yes"/>
      <point x="150" y="440" type="line" smooth="yes"/>
      <point x="160" y="508"/>
      <point x="192" y="540"/>
    </contour>
  </outline>
</glyph>
<glyph name="equal" format="1">
  <advance width="390"/>
  <unicode hex="003D"/>
  <outline>
    <contour>
      <point x="391" y="421" type="line"/>
      <point x="37" y="421" type="line"/>
      <point x="27" y="351" type="line"/>
      <point x="381" y="351" type="line"/>
    </contour>
    <contour>
      <point x="367" y="250" type="line"/>
      <point x="13" y="250" type="line"/>
      <point x="3" y="180" type="line"/>
      <point x="357" y="180" type="line"/>
    </contour>
  </outline>
</glyph>
<glyph name="question" format="1">
  <advance width="395"/>
  <unicode hex="003F"/>
  <outline>
    <contour>
      <point x="211" y="695" type="curve" smooth="yes"/>
      <point x="176" y="695"/>
      <point x="125" y="686"/>
      <point x="80" y="672" type="curve"/>
      <point x="70" y="599" type="line"/>
      <point x="106" y="614"/>
      <point x="160" y="627"/>
      <point x="197" y="627" type="curve" smooth="yes"/>
      <point x="278" y="627"/>
      <point x="297" y="593"/>
      <point x="292" y="545" type="curve" smooth="yes"/>
      <point x="291" y="535" type="line" smooth="yes"/>
      <point x="286" y="489"/>
      <point x="276" y="465"/>
      <point x="231" y="422" type="curve" smooth="yes"/>
      <point x="172" y="365" type="line" smooth="yes"/>
      <point x="133" y="328"/>
      <point x="116" y="290"/>
      <point x="107" y="228" type="curve" smooth="yes"/>
      <point x="103" y="200" type="line"/>
      <point x="179" y="200" type="line"/>
      <point x="183" y="227" type="line" smooth="yes"/>
      <point x="192" y="283"/>
      <point x="204" y="302"/>
      <point x="225" y="321" type="curve" smooth="yes"/>
      <point x="265" y="357" type="line" smooth="yes"/>
      <point x="338" y="423"/>
      <point x="365" y="467"/>
      <point x="373" y="527" type="curve" smooth="yes"/>
      <point x="375" y="542" type="line" smooth="yes"/>
      <point x="387" y="628"/>
      <point x="346" y="695"/>
    </contour>
    <contour>
      <point x="125" y="108" type="curve" smooth="yes"/>
      <point x="87" y="108"/>
      <point x="70" y="94"/>
      <point x="66" y="59" type="curve" smooth="yes"/>
      <point x="63" y="36" type="line" smooth="yes"/>
      <point x="59" y="9"/>
      <point x="78" y="-12"/>
      <point x="115" y="-12" type="curve" smooth="yes"/>
      <point x="154" y="-12"/>
      <point x="170" y="3"/>
      <point x="174" y="30" type="curve" smooth="yes"/>
      <point x="178" y="59" type="line" smooth="yes"/>
      <point x="182" y="88"/>
      <point x="162" y="108"/>
    </contour>
  </outline>
</glyph>
<glyph name="C" format="1">
  <advance width="476"/>
  <unicode hex="0043"/>
  <outline>
    <contour>
      <point x="238" y="0" type="move" name="bottom"/>
    </contour>
    <contour>
      <point x="314" y="655" type="move" name="top"/>
    </contour>
    <contour>
      <point x="303" y="667" type="curve"/>
      <point x="179" y="667"/>
      <point x="107" y="603"/>
      <point x="90" y="463" type="curve" smooth="yes"/>
      <point x="59" y="207" type="line" smooth="yes"/>
      <point x="41" y="58"/>
      <point x="99" y="-12"/>
      <point x="228" y="-12" type="curve" smooth="yes"/>
      <point x="273" y="-12"/>
      <point x="340" y="3"/>
      <point x="383" y="24" type="curve"/>
      <point x="391" y="104" type="line"/>
      <point x="335" y="79"/>
      <point x="287" y="66"/>
      <point x="241" y="66" type="curve" smooth="yes"/>
      <point x="163" y="66"/>
      <point x="132" y="100"/>
      <point x="143" y="194" type="curve" smooth="yes"/>
      <point x="176" y="469" type="line" smooth="yes"/>
      <point x="186" y="555"/>
      <point x="229" y="593"/>
      <point x="301" y="593" type="curve" smooth="yes"/>
      <point x="341" y="593"/>
      <point x="395" y="581"/>
      <point x="441" y="563" type="curve"/>
      <point x="452" y="643" type="line"/>
      <point x="405" y="658"/>
      <point x="347" y="667"/>
    </contour>
  </outline>
</glyph>
<glyph name="G" format="1">
  <advance width="555"/>
  <unicode hex="0047"/>
  <outline>
    <contour>
      <point x="259" y="0" type="move" name="bottom"/>
    </contour>
    <contour>
      <point x="326" y="655" type="move" name="top"/>
    </contour>
    <contour>
      <point x="253" y="-12" type="curve" smooth="yes"/>
      <point x="318" y="-12"/>
      <point x="397" y="15"/>
      <point x="454" y="45" type="curve"/>
      <point x="495" y="378" type="line"/>
      <point x="285" y="378" type="line"/>
      <point x="274" y="298" type="line"/>
      <point x="400" y="298" type="line"/>
      <point x="374" y="85" type="line"/>
      <point x="339" y="71"/>
      <point x="300" y="63"/>
      <point x="256" y="63" type="curve" smooth="yes"/>
      <point x="172" y="63"/>
      <point x="130" y="105"/>
      <point x="141" y="193" type="curve" smooth="yes"/>
      <point x="175" y="471" type="line" smooth="yes"/>
      <point x="186" y="558"/>
      <point x="228" y="594"/>
      <point x="312" y="594" type="curve" smooth="yes"/>
      <point x="365" y="594"/>
      <point x="433" y="580"/>
      <point x="487" y="560" type="curve"/>
      <point x="497" y="638" type="line"/>
      <point x="449" y="653"/>
      <point x="372" y="667"/>
      <point x="316" y="667" type="curve" smooth="yes"/>
      <point x="173" y="667"/>
      <point x="106" y="601"/>
      <point x="90" y="465" type="curve" smooth="yes"/>
      <point x="59" y="208" type="line" smooth="yes"/>
      <point x="42" y="68"/>
      <point x="109" y="-12"/>
    </contour>
  </outline>
</glyph>
<glyph name="I" format="1">
  <advance width="235"/>
  <unicode hex="0049"/>
  <outline>
    <contour>
      <point x="211" y="10" type="move" name="ogonek"/>
    </contour>
    <contour>
      <point x="172" y="655" type="move" name="top"/>
    </contour>
    <contour>
      <point x="89" y="655" type="move" name="topleft"/>
    </contour>
    <contour>
      <point x="39" y="0" type="line"/>
      <point x="124" y="0" type="line"/>
      <point x="204" y="655" type="line"/>
      <point x="119" y="655" type="line"/>
    </contour>
  </outline>
</glyph>
<glyph name="K" format="1">
  <advance width="525"/>
  <unicode hex="004B"/>
  <outline>
    <contour>
      <point x="238" y="0" type="move" name="bottom"/>
    </contour>
    <contour>
      <point x="263" y="655" type="move" name="top"/>
    </contour>
    <contour>
      <point x="39" y="0" type="line"/>
      <point x="124" y="0" type="line"/>
      <point x="164" y="325" type="line"/>
      <point x="243" y="219"/>
      <point x="303" y="126"/>
      <point x="381" y="0" type="curve"/>
      <point x="489" y="0" type="line"/>
      <point x="255" y="338" type="line"/>
      <point x="543" y="655" type="line"/>
      <point x="439" y="655" type="line"/>
      <point x="364" y="560"/>
      <point x="272" y="459"/>
      <point x="167" y="352" type="curve"/>
      <point x="204" y="655" type="line"/>
      <point x="119" y="655" type="line"/>
    </contour>
  </outline>
</glyph>
<glyph name="L" format="1">
  <advance width="450"/>
  <unicode hex="004C"/>
  <outline>
    <contour>
      <point x="221" y="0" type="move" name="bottom"/>
    </contour>
    <contour>
      <point x="324" y="359" type="move" name="center"/>
    </contour>
    <contour>
      <point x="176" y="655" type="move" name="top"/>
    </contour>
    <contour>
      <point x="309" y="460" type="move" name="topleft"/>
    </contour>
    <contour>
      <point x="39" y="0" type="line"/>
      <point x="384" y="0" type="line"/>
      <point x="392" y="75" type="line"/>
      <point x="132" y="75" type="line"/>
      <point x="204" y="655" type="line"/>
      <point x="119" y="655" type="line"/>
    </contour>
  </outline>
</glyph>
<glyph name="M" format="1">
  <advance width="699"/>
  <unicode hex="004D"/>
  <outline>
    <contour>
      <point x="667" y="655" type="line"/>
      <point x="534" y="655" type="line"/>
      <point x="472" y="488"/>
      <point x="404" y="319"/>
      <point x="325" y="146" type="curve"/>
      <point x="305" y="317"/>
      <point x="275" y="486"/>
      <point x="241" y="655" type="curve"/>
      <point x="120" y="655" type="line"/>
      <point x="34" y="0" type="line"/>
      <point x="118" y="0" type="line"/>
      <point x="187" y="533" type="line"/>
      <point x="267" y="68" type="line"/>
      <point x="371" y="68" type="line"/>
      <point x="568" y="535" type="line"/>
      <point x="509" y="0" type="line"/>
      <point x="593" y="0" type="line"/>
    </contour>
  </outline>
</glyph>
<glyph name="N" format="1">
  <advance width="582"/>
  <unicode hex="004E"/>
  <outline>
    <contour>
      <point x="255" y="0" type="move" name="bottom"/>
    </contour>
    <contour>
      <point x="356" y="655" type="move" name="top"/>
    </contour>
    <contour>
      <point x="346" y="0" type="line"/>
      <point x="471" y="0" type="line"/>
      <point x="551" y="655" type="line"/>
      <point x="467" y="655" type="line"/>
      <point x="399" y="100" type="line"/>
      <point x="352" y="290"/>
      <point x="301" y="471"/>
      <point x="244" y="655" type="curve"/>
      <point x="119" y="655" type="line"/>
      <point x="39" y="0" type="line"/>
      <point x="123" y="0" type="line"/>
      <point x="190" y="556" type="line"/>
    </contour>
  </outline>
</glyph>
<glyph name="O" format="1">
  <advance width="576"/>
  <unicode hex="004F"/>
  <outline>
    <contour>
      <point x="334" y="655" type="move" name="top"/>
    </contour>
    <contour>
      <point x="99" y="655" type="move" name="topleft"/>
    </contour>
    <contour>
      <point x="327" y="667" type="curve" smooth="yes"/>
      <point x="180" y="667"/>
      <point x="107" y="601"/>
      <point x="89" y="457" type="curve" smooth="yes"/>
      <point x="58" y="208" type="line" smooth="yes"/>
      <point x="41" y="69"/>
      <point x="111" y="-12"/>
      <point x="256" y="-12" type="curve" smooth="yes"/>
      <point x="400" y="-12"/>
      <point x="477" y="59"/>
      <point x="494" y="198" type="curve" smooth="yes"/>
      <point x="525" y="447" type="line" smooth="yes"/>
      <point x="542" y="585"/>
      <point x="467" y="667"/>
    </contour>
    <contour>
      <point x="321" y="592" type="curve" smooth="yes"/>
      <point x="411" y="592"/>
      <point x="452" y="547"/>
      <point x="441" y="458" type="curve" smooth="yes"/>
      <point x="408" y="191" type="line" smooth="yes"/>
      <point x="397" y="104"/>
      <point x="347" y="63"/>
      <point x="261" y="63" type="curve" smooth="yes"/>
      <point x="175" y="63"/>
      <point x="131" y="108"/>
      <point x="142" y="197" type="curve" smooth="yes"/>
      <point x="174" y="465" type="line" smooth="yes"/>
      <point x="184" y="550"/>
      <point x="233" y="592"/>
    </contour>
  </outline>
</glyph>
<glyph name="P" format="1">
  <advance width="510"/>
  <unicode hex="0050"/>
  <outline>
    <contour>
      <point x="282" y="667" type="curve" smooth="yes"/>
      <point x="238" y="667"/>
      <point x="155" y="664"/>
      <point x="120" y="662" type="curve"/>
      <point x="39" y="0" type="line"/>
      <point x="124" y="0" type="line"/>
      <point x="157" y="280" type="line"/>
      <point x="204" y="271"/>
      <point x="241" y="267"/>
      <point x="259" y="267" type="curve" smooth="yes"/>
      <point x="399" y="267"/>
      <point x="480" y="333"/>
      <point x="497" y="451" type="curve" smooth="yes"/>
      <point x="499" y="465" type="line" smooth="yes"/>
      <point x="517" y="589"/>
      <point x="439" y="667"/>
    </contour>
    <contour>
      <point x="279" y="596" type="curve" smooth="yes"/>
      <point x="382" y="596"/>
      <point x="428" y="546"/>
      <point x="414" y="467" type="curve" smooth="yes"/>
      <point x="412" y="456" type="line" smooth="yes"/>
      <point x="397" y="375"/>
      <point x="350" y="337"/>
      <point x="257" y="337" type="curve" smooth="yes"/>
      <point x="233" y="337"/>
      <point x="203" y="340"/>
      <point x="165" y="347" type="curve"/>
      <point x="196" y="594" type="line"/>
      <point x="217" y="595"/>
      <point x="240" y="596"/>
    </contour>
  </outline>
</glyph>
<glyph name="Q" format="1">
  <advance width="576"/>
  <unicode hex="0051"/>
  <outline>
    <contour>
      <point x="327" y="667" type="curve" smooth="yes"/>
      <point x="179" y="667"/>
      <point x="107" y="600"/>
      <point x="89" y="457" type="curve" smooth="yes"/>
      <point x="58" y="208" type="line" smooth="yes"/>
      <point x="41" y="72"/>
      <point x="108" y="-12"/>
      <point x="256" y="-12" type="curve" smooth="yes"/>
      <point x="263" y="-12"/>
      <point x="269" y="-12"/>
      <point x="276" y="-11" type="curve"/>
      <point x="462" y="-85" type="line"/>
      <point x="481" y="-85" type="line"/>
      <point x="489" y="-6" type="line"/>
      <point x="393" y="19" type="line"/>
      <point x="451" y="53"/>
      <point x="483" y="113"/>
      <point x="494" y="198" type="curve" smooth="yes"/>
      <point x="525" y="447" type="line" smooth="yes"/>
      <point x="542" y="583"/>
      <point x="469" y="667"/>
    </contour>
    <contour>
      <point x="321" y="592" type="curve" smooth="yes"/>
      <point x="408" y="592"/>
      <point x="452" y="550"/>
      <point x="441" y="458" type="curve" smooth="yes"/>
      <point x="408" y="191" type="line" smooth="yes"/>
      <point x="397" y="104"/>
      <point x="347" y="63"/>
      <point x="261" y="63" type="curve" smooth="yes"/>
      <point x="174" y="63"/>
      <point x="131" y="109"/>
      <point x="142" y="197" type="curve" smooth="yes"/>
      <point x="174" y="465" type="line" smooth="yes"/>
      <point x="184" y="551"/>
      <point x="234" y="592"/>
    </contour>
  </outline>
</glyph>
<glyph name="S" format="1">
  <advance width="456"/>
  <unicode hex="0053"/>
  <outline>
    <contour>
      <point x="216" y="0" type="move" name="bottom"/>
    </contour>
    <contour>
      <point x="270" y="655" type="move" name="top"/>
    </contour>
    <contour>
      <point x="220" y="388" type="line"/>
      <point x="162" y="411"/>
      <point x="142" y="448"/>
      <point x="151" y="504" type="curve" smooth="yes"/>
      <point x="153" y="516" type="line" smooth="yes"/>
      <point x="161" y="565"/>
      <point x="196" y="591"/>
      <point x="265" y="591" type="curve" smooth="yes"/>
      <point x="275" y="591"/>
      <point x="285" y="591"/>
      <point x="300" y="590" type="curve"/>
      <point x="337" y="583"/>
      <point x="374" y="574"/>
      <point x="409" y="564" type="curve"/>
      <point x="420" y="645" type="line"/>
      <point x="375" y="657"/>
      <point x="312" y="667"/>
      <point x="269" y="667" type="curve" smooth="yes"/>
      <point x="150" y="667"/>
      <point x="87" y="621"/>
      <point x="68" y="536" type="curve" smooth="yes"/>
      <point x="66" y="527" type="line" smooth="yes"/>
      <point x="44" y="430"/>
      <point x="82" y="352"/>
      <point x="169" y="317" type="curve" smooth="yes"/>
      <point x="258" y="281" type="line" smooth="yes"/>
      <point x="317" y="257"/>
      <point x="336" y="225"/>
      <point x="325" y="163" type="curve" smooth="yes"/>
      <point x="323" y="152" type="line" smooth="yes"/>
      <point x="313" y="92"/>
      <point x="279" y="64"/>
      <point x="209" y="64" type="curve" smooth="yes"/>
      <point x="197" y="64"/>
      <point x="186" y="64"/>
      <point x="166" y="66" type="curve"/>
      <point x="128" y="75"/>
      <point x="84" y="92"/>
      <point x="39" y="115" type="curve"/>
      <point x="29" y="30" type="line"/>
      <point x="74" y="8"/>
      <point x="150" y="-12"/>
      <point x="209" y="-12" type="curve" smooth="yes"/>
      <point x="329" y="-12"/>
      <point x="393" y="41"/>
      <point x="409" y="145" type="curve" smooth="yes"/>
      <point x="411" y="158" type="line" smooth="yes"/>
      <point x="426" y="257"/>
      <point x="390" y="318"/>
      <point x="303" y="354" type="curve" smooth="yes"/>
    </contour>
  </outline>
</glyph>
<glyph name="T" format="1">
  <advance width="525"/>
  <unicode hex="0054"/>
  <outline>
    <contour>
      <point x="215" y="0" type="move" name="bottom"/>
    </contour>
    <contour>
      <point x="263" y="328" type="move" name="center"/>
    </contour>
    <contour>
      <point x="64" y="578" type="line"/>
      <point x="254" y="578" type="line"/>
      <point x="184" y="0" type="line"/>
      <point x="269" y="0" type="line"/>
      <point x="339" y="578" type="line"/>
      <point x="529" y="578" type="line"/>
      <point x="539" y="655" type="line"/>
      <point x="74" y="655" type="line"/>
    </contour>
  </outline>
</glyph>
<glyph name="U" format="1">
  <advance width="576"/>
  <unicode hex="0055"/>
  <outline>
    <contour>
      <point x="518" y="10" type="move" name="ogonek"/>
    </contour>
    <contour>
      <point x="340" y="655" type="move" name="top"/>
    </contour>
    <contour>
      <point x="545" y="655" type="line"/>
      <point x="460" y="655" type="line"/>
      <point x="403" y="194" type="line" smooth="yes"/>
      <point x="392" y="104"/>
      <point x="347" y="65"/>
      <point x="267" y="65" type="curve" smooth="yes"/>
      <point x="181" y="65"/>
      <point x="136" y="112"/>
      <point x="147" y="197" type="curve" smooth="yes"/>
      <point x="204" y="655" type="line"/>
      <point x="119" y="655" type="line"/>
      <point x="63" y="204" type="line" smooth="yes"/>
      <point x="46" y="68"/>
      <point x="114" y="-12"/>
      <point x="261" y="-12" type="curve" smooth="yes"/>
      <point x="399" y="-12"/>
      <point x="471" y="56"/>
      <point x="489" y="201" type="curve" smooth="yes"/>
    </contour>
  </outline>
</glyph>
<glyph name="V" format="1">
  <advance width="526"/>
  <unicode hex="0056"/>
  <outline>
    <contour>
      <point x="557" y="655" type="line"/>
      <point x="462" y="655" type="line"/>
      <point x="394" y="464"/>
      <point x="317" y="273"/>
      <point x="231" y="82" type="curve"/>
      <point x="208" y="272"/>
      <point x="177" y="463"/>
      <point x="142" y="655" type="curve"/>
      <point x="57" y="655" type="line"/>
      <point x="171" y="0" type="line"/>
      <point x="283" y="0" type="line"/>
    </contour>
  </outline>
</glyph>
<glyph name="Y" format="1">
  <advance width="491"/>
  <unicode hex="0059"/>
  <outline>
    <contour>
      <point x="295" y="655" type="move" name="top"/>
    </contour>
    <contour>
      <point x="44" y="655" type="move" name="topleft"/>
    </contour>
    <contour>
      <point x="522" y="655" type="line"/>
      <point x="423" y="655" type="line"/>
      <point x="369" y="542"/>
      <point x="310" y="428"/>
      <point x="244" y="315" type="curve"/>
      <point x="216" y="428"/>
      <point x="184" y="542"/>
      <point x="150" y="655" type="curve"/>
      <point x="57" y="655" type="line"/>
      <point x="194" y="225" type="line"/>
      <point x="167" y="0" type="line"/>
      <point x="252" y="0" type="line"/>
      <point x="279" y="225" type="line"/>
    </contour>
  </outline>
</glyph>
<glyph name="Z" format="1">
  <advance width="480"/>
  <unicode hex="005A"/>
  <outline>
    <contour>
      <point x="297" y="655" type="move" name="top"/>
    </contour>
    <contour>
      <point x="4" y="0" type="line"/>
      <point x="399" y="0" type="line"/>
      <point x="407" y="77" type="line"/>
      <point x="115" y="77" type="line"/>
      <point x="228" y="252"/>
      <point x="345" y="423"/>
      <point x="470" y="588" type="curve"/>
      <point x="479" y="655" type="line"/>
      <point x="90" y="655" type="line"/>
      <point x="80" y="578" type="line"/>
      <point x="365" y="578" type="line"/>
      <point x="11" y="67" type="line"/>
    </contour>
  </outline>
</glyph>
<glyph name="bracketleft" format="1">
  <advance width="260"/>
  <unicode hex="005B"/>
  <outline>
    <contour>
      <point x="340" y="747" type="line"/>
      <point x="135" y="747" type="line"/>
      <point x="16" y="-92" type="line"/>
      <point x="221" y="-92" type="line"/>
      <point x="231" y="-22" type="line"/>
      <point x="111" y="-22" type="line"/>
      <point x="210" y="677" type="line"/>
      <point x="330" y="677" type="line"/>
    </contour>
  </outline>
</glyph>
<glyph name="backslash" format="1">
  <advance width="320"/>
  <unicode hex="005C"/>
  <outline>
    <contour>
      <point x="95" y="683" type="line"/>
      <point x="10" y="683" type="line"/>
      <point x="215" y="0" type="line"/>
      <point x="300" y="0" type="line"/>
    </contour>
  </outline>
</glyph>
<glyph name="bracketright" format="1">
  <advance width="260"/>
  <unicode hex="005D"/>
  <outline>
    <contour>
      <point x="255" y="747" type="line"/>
      <point x="50" y="747" type="line"/>
      <point x="40" y="677" type="line"/>
      <point x="160" y="677" type="line"/>
      <point x="61" y="-22" type="line"/>
      <point x="-58" y="-22" type="line"/>
      <point x="-68" y="-92" type="line"/>
      <point x="136" y="-92" type="line"/>
    </contour>
  </outline>
</glyph>
<glyph name="asciicircum" format="1">
  <advance width="495"/>
  <unicode hex="005E"/>
  <outline>
    <contour>
      <point x="340" y="683" type="line"/>
      <point x="265" y="683" type="line"/>
      <point x="81" y="403" type="line"/>
      <point x="167" y="403" type="line"/>
      <point x="294" y="604" type="line"/>
      <point x="366" y="403" type="line"/>
      <point x="446" y="403" type="line"/>
    </contour>
  </outline>
</glyph>
<glyph name="underscore" format="1">
  <advance width="610"/>
  <unicode hex="005F"/>
  <outline>
    <contour>
      <point x="488" y="-120" type="line"/>
      <point x="8" y="-120" type="line"/>
      <point x="-2" y="-185" type="line"/>
      <point x="478" y="-185" type="line"/>
    </contour>
  </outline>
</glyph>
<glyph name="grave" format="1">
  <advance width="240"/>
  <unicode hex="0060"/>
  <outline>
    <contour>
      <point x="181" y="488" type="move" name="_top"/>
    </contour>
    <contour>
      <point x="30" y="685" type="line"/>
      <point x="139" y="546" type="line"/>
      <point x="210" y="546" type="line"/>
      <point x="120" y="685" type="line"/>
    </contour>
  </outline>
</glyph>
<glyph name="b" format="1">
  <advance width="471"/>
  <unicode hex="0062"/>
  <outline>
    <contour>
      <point x="109" y="683" type="line"/>
      <point x="107" y="616"/>
      <point x="102" y="552"/>
      <point x="89" y="458" type="curve" smooth="yes"/>
      <point x="50" y="185" type="line" smooth="yes"/>
      <point x="32" y="60"/>
      <point x="88" y="-12"/>
      <point x="208" y="-12" type="curve" smooth="yes"/>
      <point x="311" y="-12"/>
      <point x="366" y="40"/>
      <point x="394" y="177" type="curve" smooth="yes"/>
      <point x="418" y="297" type="line" smooth="yes"/>
      <point x="445" y="433"/>
      <point x="395" y="500"/>
      <point x="312" y="500" type="curve" smooth="yes"/>
      <point x="230" y="500"/>
      <point x="170" y="412"/>
      <point x="124" y="253" type="curve"/>
      <point x="121" y="251" type="line"/>
      <point x="119" y="253" type="line"/>
      <point x="178" y="485" type="line"/>
      <point x="182" y="514" type="line" smooth="yes"/>
      <point x="190" y="571"/>
      <point x="193" y="632"/>
      <point x="194" y="683" type="curve"/>
    </contour>
    <contour>
      <point x="292" y="424" type="curve" smooth="yes"/>
      <point x="327" y="424"/>
      <point x="353" y="387"/>
      <point x="333" y="292" type="curve" smooth="yes"/>
      <point x="306" y="162" type="line" smooth="yes"/>
      <point x="291" y="87"/>
      <point x="260" y="59"/>
      <point x="208" y="59" type="curve" smooth="yes"/>
      <point x="161" y="59"/>
      <point x="132" y="88"/>
      <point x="133" y="141" type="curve"/>
      <point x="154" y="277"/>
      <point x="222" y="424"/>
    </contour>
  </outline>
</glyph>
<glyph name="c" format="1">
  <advance width="393"/>
  <unicode hex="0063"/>
  <outline>
    <contour>
      <point x="197" y="0" type="move" name="bottom"/>
    </contour>
    <contour>
      <point x="254" y="488" type="move" name="top"/>
    </contour>
    <contour>
      <point x="186" y="-12" type="curve"/>
      <point x="221" y="-12"/>
      <point x="265" y="-1"/>
      <point x="307" y="19" type="curve"/>
      <point x="316" y="96" type="line"/>
      <point x="278" y="74"/>
      <point x="235" y="63"/>
      <point x="198" y="63" type="curve" smooth="yes"/>
      <point x="147" y="63"/>
      <point x="118" y="91"/>
      <point x="129" y="174" type="curve" smooth="yes"/>
      <point x="150" y="328" type="line" smooth="yes"/>
      <point x="160" y="396"/>
      <point x="195" y="428"/>
      <point x="247" y="428" type="curve" smooth="yes"/>
      <point x="275" y="428"/>
      <point x="310" y="421"/>
      <point x="350" y="406" type="curve"/>
      <point x="362" y="482" type="line"/>
      <point x="317" y="495"/>
      <point x="283" y="500"/>
      <point x="248" y="500" type="curve" smooth="yes"/>
      <point x="145" y="500"/>
      <point x="82" y="445"/>
      <point x="64" y="321" type="curve" smooth="yes"/>
      <point x="43" y="173" type="line" smooth="yes"/>
      <point x="26" y="54"/>
      <point x="80" y="-12"/>
    </contour>
  </outline>
</glyph>
<glyph name="e" format="1">
  <advance width="436"/>
  <unicode hex="0065"/>
  <outline>
    <contour>
      <point x="218" y="0" type="move" name="bottom"/>
    </contour>
    <contour>
      <point x="392" y="10" type="move" name="ogonek"/>
    </contour>
    <contour>
      <point x="271" y="488" type="move" name="top"/>
    </contour>
    <contour>
      <point x="263" y="500" type="curve" smooth="yes"/>
      <point x="160" y="500"/>
      <point x="80" y="424"/>
      <point x="57" y="268" type="curve" smooth="yes"/>
      <point x="45" y="190" type="line" smooth="yes"/>
      <point x="25" y="54"/>
      <point x="71" y="-12"/>
      <point x="184" y="-12" type="curve" smooth="yes"/>
      <point x="224" y="-12"/>
      <point x="280" y="2"/>
      <point x="325" y="23" type="curve"/>
      <point x="340" y="100" type="line"/>
      <point x="295" y="77"/>
      <point x="241" y="61"/>
      <point x="198" y="61" type="curve" smooth="yes"/>
      <point x="140" y="61"/>
      <point x="115" y="92"/>
      <point x="126" y="162" type="curve"/>
      <point x="127" y="173" type="line"/>
      <point x="326" y="190"/>
      <point x="404" y="277"/>
      <point x="405" y="374" type="curve" smooth="yes"/>
      <point x="406" y="450"/>
      <point x="353" y="500"/>
    </contour>
    <contour>
      <point x="260" y="429" type="curve" smooth="yes"/>
      <point x="297" y="429"/>
      <point x="321" y="406"/>
      <point x="321" y="367" type="curve" smooth="yes"/>
      <point x="321" y="326"/>
      <point x="298" y="291"/>
      <point x="244" y="254" type="curve"/>
      <point x="216" y="243"/>
      <point x="180" y="234"/>
      <point x="136" y="227" type="curve"/>
      <point x="143" y="272" type="line" smooth="yes"/>
      <point x="159" y="378"/>
      <point x="210" y="429"/>
    </contour>
  </outline>
</glyph>
<glyph name="f" format="1">
  <advance width="294"/>
  <unicode hex="0066"/>
  <outline>
    <contour>
      <point x="297" y="695" type="curve" smooth="yes"/>
      <point x="205" y="695"/>
      <point x="150" y="646"/>
      <point x="135" y="539" type="curve" smooth="yes"/>
      <point x="127" y="482" type="line"/>
      <point x="51" y="468" type="line"/>
      <point x="44" y="418" type="line"/>
      <point x="118" y="418" type="line"/>
      <point x="55" y="-37" type="line" smooth="yes"/>
      <point x="46" y="-105"/>
      <point x="26" y="-125"/>
      <point x="-11" y="-125" type="curve" smooth="yes"/>
      <point x="-33" y="-125"/>
      <point x="-60" y="-120"/>
      <point x="-83" y="-112" type="curve"/>
      <point x="-93" y="-183" type="line"/>
      <point x="-71" y="-190"/>
      <point x="-32" y="-197"/>
      <point x="-5" y="-197" type="curve" smooth="yes"/>
      <point x="81" y="-197"/>
      <point x="125" y="-148"/>
      <point x="141" y="-32" type="curve" smooth="yes"/>
      <point x="203" y="418" type="line"/>
      <point x="293" y="418" type="line"/>
      <point x="303" y="488" type="line"/>
      <point x="213" y="488" type="line"/>
      <point x="221" y="544" type="line" smooth="yes"/>
      <point x="230" y="606"/>
      <point x="253" y="626"/>
      <point x="292" y="626" type="curve" smooth="yes"/>
      <point x="311" y="626"/>
      <point x="340" y="621"/>
      <point x="365" y="614" type="curve"/>
      <point x="374" y="684" type="line"/>
      <point x="353" y="690"/>
      <point x="319" y="695"/>
    </contour>
  </outline>
</glyph>
<glyph name="g" format="1">
  <advance width="478"/>
  <unicode hex="0067"/>
  <outline>
    <contour>
      <point x="268" y="488" type="move" name="top"/>
    </contour>
    <contour>
      <point x="229" y="500" type="curve" smooth="yes"/>
      <point x="150" y="500"/>
      <point x="87" y="444"/>
      <point x="68" y="327" type="curve" smooth="yes"/>
      <point x="42" y="164" type="line" smooth="yes"/>
      <point x="23" y="49"/>
      <point x="73" y="-12"/>
      <point x="148" y="-12" type="curve" smooth="yes"/>
      <point x="221" y="-12"/>
      <point x="284" y="48"/>
      <point x="333" y="191" type="curve"/>
      <point x="336" y="192" type="line"/>
      <point x="338" y="190" type="line"/>
      <point x="288" y="28" type="line"/>
      <point x="277" y="-43" type="line" smooth="yes"/>
      <point x="268" y="-99"/>
      <point x="243" y="-124"/>
      <point x="181" y="-124" type="curve" smooth="yes"/>
      <point x="142" y="-124"/>
      <point x="89" y="-114"/>
      <point x="45" y="-100" type="curve"/>
      <point x="35" y="-175" type="line"/>
      <point x="79" y="-188"/>
      <point x="137" y="-197"/>
      <point x="178" y="-197" type="curve" smooth="yes"/>
      <point x="294" y="-197"/>
      <point x="347" y="-149"/>
      <point x="363" y="-36" type="curve" smooth="yes"/>
      <point x="437" y="488" type="line"/>
      <point x="357" y="488" type="line"/>
      <point x="350" y="438" type="line"/>
      <point x="318" y="476"/>
      <point x="275" y="500"/>
    </contour>
    <contour>
      <point x="240" y="427" type="curve" smooth="yes"/>
      <point x="274" y="427"/>
      <point x="311" y="406"/>
      <point x="337" y="372" type="curve"/>
      <point x="326" y="295" type="line"/>
      <point x="309" y="202"/>
      <point x="257" y="64"/>
      <point x="172" y="64" type="curve" smooth="yes"/>
      <point x="133" y="64"/>
      <point x="115" y="90"/>
      <point x="129" y="175" type="curve" smooth="yes"/>
      <point x="153" y="322" type="line" smooth="yes"/>
      <point x="165" y="396"/>
      <point x="196" y="427"/>
    </contour>
  </outline>
</glyph>
<glyph name="j" format="1">
  <advance width="225"/>
  <unicode hex="006A"/>
  <outline>
    <contour>
      <point x="153" y="488" type="move" name="top"/>
    </contour>
    <contour>
      <point x="183" y="488" type="line"/>
      <point x="98" y="488" type="line"/>
      <point x="21" y="-59" type="line" smooth="yes"/>
      <point x="14" y="-112"/>
      <point x="-5" y="-124"/>
      <point x="-42" y="-124" type="curve" smooth="yes"/>
      <point x="-67" y="-124"/>
      <point x="-98" y="-118"/>
      <point x="-114" y="-112" type="curve"/>
      <point x="-124" y="-185" type="line"/>
      <point x="-105" y="-191"/>
      <point x="-70" y="-197"/>
      <point x="-43" y="-197" type="curve" smooth="yes"/>
      <point x="49" y="-197"/>
      <point x="93" y="-153"/>
      <point x="107" y="-51" type="curve"/>
    </contour>
    <contour>
      <point x="210" y="646" type="line"/>
      <point x="214" y="676"/>
      <point x="193" y="695"/>
      <point x="157" y="695" type="curve" smooth="yes"/>
      <point x="122" y="695"/>
      <point x="103" y="682"/>
      <point x="99" y="652" type="curve" smooth="yes"/>
      <point x="95" y="623" type="line" smooth="yes"/>
      <point x="91" y="593"/>
      <point x="113" y="575"/>
      <point x="148" y="575" type="curve" smooth="yes"/>
      <point x="184" y="575"/>
      <point x="202" y="588"/>
      <point x="206" y="617" type="curve" smooth="yes"/>
    </contour>
  </outline>
</glyph>
<glyph name="m" format="1">
  <advance width="736"/>
  <unicode hex="006D"/>
  <outline>
    <contour>
      <point x="578" y="500" type="curve" smooth="yes"/>
      <point x="503" y="500"/>
      <point x="431" y="412"/>
      <point x="384" y="240" type="curve"/>
      <point x="381" y="238" type="line"/>
      <point x="378" y="240" type="line"/>
      <point x="422" y="392" type="line"/>
      <point x="420" y="467"/>
      <point x="383" y="500"/>
      <point x="322" y="500" type="curve" smooth="yes"/>
      <point x="247" y="500"/>
      <point x="175" y="412"/>
      <point x="128" y="240" type="curve"/>
      <point x="125" y="238" type="line"/>
      <point x="122" y="240" type="line"/>
      <point x="167" y="409" type="line"/>
      <point x="178" y="488" type="line"/>
      <point x="98" y="488" type="line"/>
      <point x="30" y="0" type="line"/>
      <point x="115" y="0" type="line"/>
      <point x="121" y="43" type="line" smooth="yes"/>
      <point x="153" y="273"/>
      <point x="233" y="421"/>
      <point x="300" y="421" type="curve" smooth="yes"/>
      <point x="333" y="421"/>
      <point x="349" y="401"/>
      <point x="335" y="313" type="curve" smooth="yes"/>
      <point x="286" y="0" type="line"/>
      <point x="371" y="0" type="line"/>
      <point x="377" y="43" type="line" smooth="yes"/>
      <point x="409" y="273"/>
      <point x="489" y="421"/>
      <point x="556" y="421" type="curve"/>
      <point x="589" y="421"/>
      <point x="605" y="401"/>
      <point x="591" y="313" type="curve" smooth="yes"/>
      <point x="542" y="0" type="line"/>
      <point x="627" y="0" type="line"/>
      <point x="675" y="316" type="line" smooth="yes"/>
      <point x="695" y="450"/>
      <point x="657" y="500"/>
    </contour>
  </outline>
</glyph>
<glyph name="n" format="1">
  <advance width="485"/>
  <unicode hex="006E"/>
  <outline>
    <contour>
      <point x="49" y="488" type="move" name="apo"/>
    </contour>
    <contour>
      <point x="203" y="0" type="move" name="bottom"/>
    </contour>
    <contour>
      <point x="284" y="488" type="move" name="top"/>
    </contour>
    <contour>
      <point x="327" y="500" type="curve" smooth="yes"/>
      <point x="248" y="500"/>
      <point x="175" y="412"/>
      <point x="128" y="240" type="curve"/>
      <point x="125" y="238" type="line"/>
      <point x="122" y="240" type="line"/>
      <point x="167" y="409" type="line"/>
      <point x="178" y="488" type="line"/>
      <point x="98" y="488" type="line"/>
      <point x="30" y="0" type="line"/>
      <point x="115" y="0" type="line"/>
      <point x="119" y="30" type="line" smooth="yes"/>
      <point x="152" y="276"/>
      <point x="234" y="421"/>
      <point x="304" y="421" type="curve" smooth="yes"/>
      <point x="337" y="421"/>
      <point x="354" y="398"/>
      <point x="341" y="318" type="curve" smooth="yes"/>
      <point x="291" y="0" type="line"/>
      <point x="376" y="0" type="line"/>
      <point x="424" y="316" type="line" smooth="yes"/>
      <point x="444" y="450"/>
      <point x="406" y="500"/>
    </contour>
  </outline>
</glyph>
<glyph name="p" format="1">
  <advance width="477"/>
  <unicode hex="0070"/>
  <outline>
    <contour>
      <point x="316" y="500" type="curve" smooth="yes"/>
      <point x="234" y="500"/>
      <point x="176" y="413"/>
      <point x="129" y="254" type="curve"/>
      <point x="126" y="252" type="line"/>
      <point x="124" y="254" type="line"/>
      <point x="170" y="430" type="line"/>
      <point x="178" y="488" type="line"/>
      <point x="98" y="488" type="line"/>
      <point x="42" y="97" type="line" smooth="yes"/>
      <point x="27" y="-6"/>
      <point x="7" y="-111"/>
      <point x="-12" y="-185" type="curve"/>
      <point x="72" y="-185" type="line"/>
      <point x="88" y="-125"/>
      <point x="105" y="-45"/>
      <point x="119" y="38" type="curve"/>
      <point x="151" y="8"/>
      <point x="197" y="-12"/>
      <point x="237" y="-12" type="curve" smooth="yes"/>
      <point x="322" y="-12"/>
      <point x="374" y="40"/>
      <point x="394" y="148" type="curve" smooth="yes"/>
      <point x="422" y="297" type="line" smooth="yes"/>
      <point x="447" y="432"/>
      <point x="399" y="500"/>
    </contour>
    <contour>
      <point x="296" y="424" type="curve" smooth="yes"/>
      <point x="330" y="424"/>
      <point x="356" y="387"/>
      <point x="337" y="292" type="curve" smooth="yes"/>
      <point x="311" y="160" type="line" smooth="yes"/>
      <point x="297" y="91"/>
      <point x="265" y="63"/>
      <point x="216" y="63" type="curve" smooth="yes"/>
      <point x="189" y="63"/>
      <point x="154" y="77"/>
      <point x="128" y="99" type="curve"/>
      <point x="133" y="134" type="line" smooth="yes"/>
      <point x="154" y="280"/>
      <point x="228" y="424"/>
    </contour>
  </outline>
</glyph>
<glyph name="q" format="1">
  <advance width="476"/>
  <unicode hex="0071"/>
  <outline>
    <contour>
      <point x="227" y="500" type="curve" smooth="yes"/>
      <point x="148" y="500"/>
      <point x="84" y="444"/>
      <point x="65" y="327" type="curve" smooth="yes"/>
      <point x="39" y="164" type="line" smooth="yes"/>
      <point x="20" y="49"/>
      <point x="71" y="-12"/>
      <point x="146" y="-12" type="curve" smooth="yes"/>
      <point x="218" y="-12"/>
      <point x="282" y="48"/>
      <point x="330" y="191" type="curve"/>
      <point x="333" y="192" type="line"/>
      <point x="335" y="190" type="line"/>
      <point x="285" y="28" type="line"/>
      <point x="254" y="-185" type="line"/>
      <point x="339" y="-185" type="line"/>
      <point x="434" y="488" type="line"/>
      <point x="354" y="488" type="line"/>
      <point x="347" y="439" type="line"/>
      <point x="315" y="476"/>
      <point x="273" y="500"/>
    </contour>
    <contour>
      <point x="238" y="427" type="curve" smooth="yes"/>
      <point x="272" y="427"/>
      <point x="308" y="407"/>
      <point x="334" y="373" type="curve"/>
      <point x="320" y="276" type="line"/>
      <point x="301" y="186"/>
      <point x="250" y="64"/>
      <point x="170" y="64" type="curve" smooth="yes"/>
      <point x="131" y="64"/>
      <point x="112" y="90"/>
      <point x="126" y="175" type="curve" smooth="yes"/>
      <point x="150" y="322" type="line" smooth="yes"/>
      <point x="162" y="396"/>
      <point x="194" y="427"/>
    </contour>
  </outline>
</glyph>
<glyph name="r" format="1">
  <advance width="325"/>
  <unicode hex="0072"/>
  <outline>
    <contour>
      <point x="62" y="0" type="move" name="bottom"/>
    </contour>
    <contour>
      <point x="229" y="488" type="move" name="top"/>
    </contour>
    <contour>
      <point x="318" y="500" type="curve" smooth="yes"/>
      <point x="245" y="500"/>
      <point x="175" y="412"/>
      <point x="128" y="240" type="curve"/>
      <point x="125" y="238" type="line"/>
      <point x="122" y="240" type="line"/>
      <point x="167" y="409" type="line"/>
      <point x="178" y="488" type="line"/>
      <point x="98" y="488" type="line"/>
      <point x="30" y="0" type="line"/>
      <point x="115" y="0" type="line"/>
      <point x="121" y="45" type="line" smooth="yes"/>
      <point x="147" y="242"/>
      <point x="211" y="394"/>
      <point x="292" y="394" type="curve" smooth="yes"/>
      <point x="303" y="394"/>
      <point x="310" y="393"/>
      <point x="318" y="391" type="curve"/>
      <point x="334" y="498" type="line"/>
      <point x="330" y="499"/>
      <point x="322" y="500"/>
    </contour>
  </outline>
</glyph>
<glyph name="s" format="1">
  <advance width="385"/>
  <unicode hex="0073"/>
  <outline>
    <contour>
      <point x="166" y="0" type="move" name="bottom"/>
    </contour>
    <contour>
      <point x="220" y="488" type="move" name="top"/>
    </contour>
    <contour>
      <point x="216" y="500" type="curve" smooth="yes"/>
      <point x="115" y="500"/>
      <point x="67" y="460"/>
      <point x="55" y="395" type="curve" smooth="yes"/>
      <point x="52" y="379" type="line" smooth="yes"/>
      <point x="41" y="318"/>
      <point x="67" y="266"/>
      <point x="132" y="236" type="curve" smooth="yes"/>
      <point x="212" y="199" type="line" smooth="yes"/>
      <point x="241" y="185"/>
      <point x="255" y="157"/>
      <point x="250" y="130" type="curve"/>
      <point x="249" y="124" type="line" smooth="yes"/>
      <point x="242" y="81"/>
      <point x="216" y="60"/>
      <point x="168" y="60" type="curve" smooth="yes"/>
      <point x="159" y="60"/>
      <point x="145" y="61"/>
      <point x="129" y="63" type="curve"/>
      <point x="102" y="71"/>
      <point x="60" y="88"/>
      <point x="33" y="103" type="curve"/>
      <point x="20" y="26" type="line"/>
      <point x="62" y="4"/>
      <point x="122" y="-12"/>
      <point x="170" y="-12" type="curve" smooth="yes"/>
      <point x="268" y="-12"/>
      <point x="322" y="41"/>
      <point x="331" y="116" type="curve" smooth="yes"/>
      <point x="333" y="132" type="line" smooth="yes"/>
      <point x="340" y="191"/>
      <point x="311" y="241"/>
      <point x="255" y="267" type="curve" smooth="yes"/>
      <point x="173" y="305" type="line" smooth="yes"/>
      <point x="142" y="319"/>
      <point x="128" y="345"/>
      <point x="133" y="374" type="curve" smooth="yes"/>
      <point x="134" y="380" type="line" smooth="yes"/>
      <point x="139" y="412"/>
      <point x="162" y="431"/>
      <point x="209" y="431" type="curve" smooth="yes"/>
      <point x="218" y="431"/>
      <point x="235" y="430"/>
      <point x="245" y="429" type="curve"/>
      <point x="267" y="424"/>
      <point x="299" y="413"/>
      <point x="326" y="403" type="curve"/>
      <point x="338" y="480" type="line"/>
      <point x="296" y="492"/>
      <point x="248" y="500"/>
    </contour>
  </outline>
</glyph>
<glyph name="v" format="1">
  <advance width="432"/>
  <unicode hex="0076"/>
  <outline>
    <contour>
      <point x="450" y="488" type="line"/>
      <point x="357" y="488" type="line"/>
      <point x="290" y="308"/>
      <point x="261" y="238"/>
      <point x="182" y="67" type="curve"/>
      <point x="179" y="65" type="line"/>
      <point x="177" y="67" type="line"/>
      <point x="164" y="207"/>
      <point x="147" y="337"/>
      <point x="121" y="488" type="curve"/>
      <point x="38" y="488" type="line"/>
      <point x="121" y="0" type="line"/>
      <point x="230" y="0" type="line"/>
    </contour>
  </outline>
</glyph>
<glyph name="w" format="1">
  <advance width="678"/>
  <unicode hex="0077"/>
  <outline>
    <contour>
      <point x="383" y="488" type="move" name="top"/>
    </contour>
    <contour>
      <point x="686" y="488" type="line"/>
      <point x="596" y="488" type="line"/>
      <point x="558" y="349"/>
      <point x="516" y="212"/>
      <point x="465" y="75" type="curve"/>
      <point x="462" y="73" type="line"/>
      <point x="460" y="75" type="line"/>
      <point x="454" y="214"/>
      <point x="443" y="351"/>
      <point x="423" y="488" type="curve"/>
      <point x="308" y="488" type="line"/>
      <point x="261" y="349"/>
      <point x="212" y="212"/>
      <point x="155" y="75" type="curve"/>
      <point x="153" y="73" type="line"/>
      <point x="150" y="75" type="line"/>
      <point x="152" y="212"/>
      <point x="147" y="350"/>
      <point x="135" y="488" type="curve"/>
      <point x="48" y="488" type="line"/>
      <point x="89" y="0" type="line"/>
      <point x="197" y="0" type="line"/>
      <point x="357" y="414" type="line"/>
      <point x="399" y="0" type="line"/>
      <point x="508" y="0" type="line"/>
    </contour>
  </outline>
</glyph>
<glyph name="bar" format="1">
  <advance width="225"/>
  <unicode hex="007C"/>
  <outline>
    <contour>
      <point x="227" y="798" type="line"/>
      <point x="142" y="798" type="line"/>
      <point x="14" y="-112" type="line"/>
      <point x="99" y="-112" type="line"/>
    </contour>
  </outline>
</glyph>
<glyph name="braceright" format="1">
  <advance width="256"/>
  <unicode hex="007D"/>
  <outline>
    <contour>
      <point x="45" y="677" type="line"/>
      <point x="119" y="677"/>
      <point x="130" y="663"/>
      <point x="119" y="588" type="curve" smooth="yes"/>
      <point x="98" y="449" type="line" smooth="yes"/>
      <point x="88" y="381"/>
      <point x="101" y="348"/>
      <point x="140" y="334" type="curve"/>
      <point x="98" y="321"/>
      <point x="74" y="287"/>
      <point x="65" y="219" type="curve" smooth="yes"/>
      <point x="43" y="52" type="line" smooth="yes"/>
      <point x="32" y="-28"/>
      <point x="18" y="-33"/>
      <point x="-54" y="-22" type="curve"/>
      <point x="-64" y="-94" type="line"/>
      <point x="78" y="-112"/>
      <point x="111" y="-82"/>
      <point x="131" y="71" type="curve" smooth="yes"/>
      <point x="150" y="219" type="line" smooth="yes"/>
      <point x="158" y="281"/>
      <point x="179" y="299"/>
      <point x="227" y="299" type="curve" smooth="yes"/>
      <point x="252" y="299" type="line"/>
      <point x="261" y="369" type="line"/>
      <point x="236" y="369" type="line" smooth="yes"/>
      <point x="188" y="369"/>
      <point x="174" y="388"/>
      <point x="183" y="449" type="curve" smooth="yes"/>
      <point x="201" y="567" type="line" smooth="yes"/>
      <point x="223" y="714"/>
      <point x="197" y="747"/>
      <point x="55" y="747" type="curve"/>
    </contour>
  </outline>
</glyph>
<glyph name="cent" format="1">
  <advance width="390"/>
  <unicode hex="00A2"/>
  <outline>
    <contour>
      <point x="301" y="576" type="line"/>
      <point x="226" y="576" type="line"/>
      <point x="207" y="439" type="line"/>
      <point x="282" y="439" type="line"/>
    </contour>
    <contour>
      <point x="227" y="49" type="line"/>
      <point x="152" y="49" type="line"/>
      <point x="133" y="-88" type="line"/>
      <point x="208" y="-88" type="line"/>
    </contour>
    <component base="c" xOffset="-5"/>
  </outline>
</glyph>
<glyph name="sterling" format="1">
  <advance width="397"/>
  <unicode hex="00A3"/>
  <outline>
    <contour>
      <point x="277" y="613" type="curve" smooth="yes"/>
      <point x="175" y="613"/>
      <point x="124" y="566"/>
      <point x="109" y="460" type="curve" smooth="yes"/>
      <point x="97" y="375" type="line"/>
      <point x="27" y="375" type="line"/>
      <point x="17" y="305" type="line"/>
      <point x="87" y="305" type="line"/>
      <point x="69" y="176" type="line" smooth="yes"/>
      <point x="63" y="131"/>
      <point x="46" y="94"/>
      <point x="13" y="60" type="curve"/>
      <point x="5" y="0" type="line"/>
      <point x="352" y="0" type="line"/>
      <point x="362" y="74" type="line"/>
      <point x="99" y="74" type="line"/>
      <point x="134" y="101"/>
      <point x="148" y="130"/>
      <point x="158" y="204" type="curve" smooth="yes"/>
      <point x="172" y="305" type="line"/>
      <point x="267" y="305" type="line"/>
      <point x="277" y="375" type="line"/>
      <point x="182" y="375" type="line"/>
      <point x="194" y="465" type="line" smooth="yes"/>
      <point x="202" y="522"/>
      <point x="227" y="543"/>
      <point x="279" y="543" type="curve" smooth="yes"/>
      <point x="310" y="543"/>
      <point x="353" y="532"/>
      <point x="381" y="521" type="curve"/>
      <point x="391" y="593" type="line"/>
      <point x="363" y="603"/>
      <point x="308" y="613"/>
    </contour>
  </outline>
</glyph>
<glyph name="yen" format="1">
  <advance width="455"/>
  <unicode hex="00A5"/>
  <outline>
    <contour>
      <point x="504" y="601" type="line"/>
      <point x="404" y="601" type="line"/>
      <point x="348" y="494"/>
      <point x="286" y="387"/>
      <point x="221" y="280" type="curve"/>
      <point x="195" y="387"/>
      <point x="166" y="493"/>
      <point x="130" y="601" type="curve"/>
      <point x="39" y="601" type="line"/>
      <point x="157" y="259" type="line"/>
      <point x="86" y="259" type="line"/>
      <point x="76" y="189" type="line"/>
      <point x="170" y="189" type="line"/>
      <point x="164" y="148" type="line"/>
      <point x="70" y="148" type="line"/>
      <point x="60" y="78" type="line"/>
      <point x="155" y="78" type="line"/>
      <point x="145" y="0" type="line"/>
      <point x="230" y="0" type="line"/>
      <point x="240" y="78" type="line"/>
      <point x="334" y="78" type="line"/>
      <point x="344" y="148" type="line"/>
      <point x="249" y="148" type="line"/>
      <point x="255" y="189" type="line"/>
      <point x="350" y="189" type="line"/>
      <point x="359" y="259" type="line"/>
      <point x="287" y="259" type="line"/>
    </contour>
  </outline>
</glyph>
<glyph name="brokenbar" format="1">
  <advance width="225"/>
  <unicode hex="00A6"/>
  <outline>
    <contour>
      <point x="227" y="801" type="line"/>
      <point x="142" y="801" type="line"/>
      <point x="87" y="408" type="line"/>
      <point x="172" y="408" type="line"/>
    </contour>
    <contour>
      <point x="154" y="278" type="line"/>
      <point x="69" y="278" type="line"/>
      <point x="13" y="-115" type="line"/>
      <point x="98" y="-115" type="line"/>
    </contour>
  </outline>
</glyph>
<glyph name="dieresis" format="1">
  <advance width="345"/>
  <unicode hex="00A8"/>
  <outline>
    <contour>
      <point x="173" y="488" type="move" name="_top"/>
    </contour>
    <contour>
      <point x="143" y="648" type="line"/>
      <point x="147" y="678"/>
      <point x="127" y="695"/>
      <point x="91" y="695" type="curve" smooth="yes"/>
      <point x="57" y="695"/>
      <point x="38" y="682"/>
      <point x="34" y="652" type="curve" smooth="yes"/>
      <point x="30" y="624" type="line" smooth="yes"/>
      <point x="26" y="596"/>
      <point x="49" y="577"/>
      <point x="83" y="577" type="curve" smooth="yes"/>
      <point x="119" y="577"/>
      <point x="135" y="591"/>
      <point x="139" y="619" type="curve" smooth="yes"/>
    </contour>
    <contour>
      <point x="315" y="648" type="line"/>
      <point x="319" y="678"/>
      <point x="298" y="695"/>
      <point x="263" y="695" type="curve" smooth="yes"/>
      <point x="228" y="695"/>
      <point x="210" y="682"/>
      <point x="206" y="652" type="curve" smooth="yes"/>
      <point x="202" y="624" type="line" smooth="yes"/>
      <point x="198" y="596"/>
      <point x="220" y="577"/>
      <point x="255" y="577" type="curve" smooth="yes"/>
      <point x="290" y="577"/>
      <point x="307" y="591"/>
      <point x="311" y="619" type="curve" smooth="yes"/>
    </contour>
  </outline>
</glyph>
<glyph name="copyright" format="1">
  <advance width="646"/>
  <unicode hex="00A9"/>
  <outline>
    <contour>
      <point x="356" y="616" type="curve" smooth="yes"/>
      <point x="191" y="616"/>
      <point x="104" y="549"/>
      <point x="85" y="408" type="curve" smooth="yes"/>
      <point x="58" y="211" type="line" smooth="yes"/>
      <point x="40" y="82"/>
      <point x="114" y="-15"/>
      <point x="294" y="-15" type="curve" smooth="yes"/>
      <point x="463" y="-15"/>
      <point x="545" y="56"/>
      <point x="564" y="193" type="curve" smooth="yes"/>
      <point x="591" y="390" type="line"/>
      <point x="608" y="522"/>
      <point x="531" y="616"/>
    </contour>
    <contour>
      <point x="355" y="480" type="curve" smooth="yes"/>
      <point x="266" y="480"/>
      <point x="220" y="441"/>
      <point x="206" y="343" type="curve" smooth="yes"/>
      <point x="198" y="287" type="line" smooth="yes"/>
      <point x="183" y="185"/>
      <point x="226" y="129"/>
      <point x="313" y="129" type="curve"/>
      <point x="338" y="129"/>
      <point x="359" y="133"/>
      <point x="394" y="146" type="curve"/>
      <point x="401" y="212" type="line"/>
      <point x="375" y="202"/>
      <point x="351" y="197"/>
      <point x="322" y="197" type="curve"/>
      <point x="290" y="197"/>
      <point x="271" y="223"/>
      <point x="279" y="283" type="curve" smooth="yes"/>
      <point x="286" y="338" type="line" smooth="yes"/>
      <point x="293" y="394"/>
      <point x="317" y="414"/>
      <point x="354" y="414" type="curve" smooth="yes"/>
      <point x="375" y="414"/>
      <point x="397" y="409"/>
      <point x="422" y="400" type="curve"/>
      <point x="433" y="468" type="line"/>
      <point x="410" y="475"/>
      <point x="380" y="480"/>
    </contour>
    <contour>
      <point x="354" y="550" type="curve" smooth="yes"/>
      <point x="475" y="550"/>
      <point x="534" y="491"/>
      <point x="521" y="397" type="curve" smooth="yes"/>
      <point x="492" y="185" type="line"/>
      <point x="480" y="100"/>
      <point x="414" y="51"/>
      <point x="297" y="51" type="curve" smooth="yes"/>
      <point x="176" y="51"/>
      <point x="116" y="110"/>
      <point x="129" y="204" type="curve" smooth="yes"/>
      <point x="158" y="416" type="line" smooth="yes"/>
      <point x="170" y="502"/>
      <point x="237" y="550"/>
    </contour>
  </outline>
</glyph>
<glyph name="guillemotleft" format="1">
  <advance width="488"/>
  <unicode hex="00AB"/>
  <outline>
    <contour>
      <point x="281" y="438" type="line"/>
      <point x="193" y="438" type="line"/>
      <point x="69" y="268" type="line"/>
      <point x="145" y="98" type="line"/>
      <point x="233" y="98" type="line"/>
      <point x="164" y="268" type="line"/>
    </contour>
    <contour>
      <point x="451" y="438" type="line"/>
      <point x="363" y="438" type="line"/>
      <point x="239" y="268" type="line"/>
      <point x="315" y="98" type="line"/>
      <point x="403" y="98" type="line"/>
      <point x="334" y="268" type="line"/>
    </contour>
  </outline>
</glyph>
<glyph name="registered" format="1">
  <advance width="528"/>
  <unicode hex="00AE"/>
  <outline>
    <contour>
      <point x="304" y="695" type="curve" smooth="yes"/>
      <point x="164" y="695"/>
      <point x="117" y="638"/>
      <point x="102" y="526" type="curve" smooth="yes"/>
      <point x="97" y="492" type="line" smooth="yes"/>
      <point x="81" y="380"/>
      <point x="133" y="299"/>
      <point x="272" y="299" type="curve" smooth="yes"/>
      <point x="412" y="299"/>
      <point x="465" y="356"/>
      <point x="481" y="468" type="curve" smooth="yes"/>
      <point x="485" y="501" type="line" smooth="yes"/>
      <point x="500" y="625"/>
      <point x="445" y="695"/>
    </contour>
    <contour>
      <point x="303" y="651" type="curve" smooth="yes"/>
      <point x="406" y="651"/>
      <point x="451" y="598"/>
      <point x="439" y="514" type="curve" smooth="yes"/>
      <point x="432" y="461" type="line" smooth="yes"/>
      <point x="420" y="378"/>
      <point x="378" y="343"/>
      <point x="275" y="343" type="curve" smooth="yes"/>
      <point x="172" y="343"/>
      <point x="132" y="398"/>
      <point x="144" y="481" type="curve" smooth="yes"/>
      <point x="151" y="533" type="line" smooth="yes"/>
      <point x="162" y="616"/>
      <point x="200" y="651"/>
    </contour>
    <contour>
      <point x="305" y="617" type="curve" smooth="yes"/>
      <point x="288" y="617"/>
      <point x="261" y="615"/>
      <point x="234" y="612" type="curve"/>
      <point x="201" y="382" type="line"/>
      <point x="244" y="382" type="line"/>
      <point x="256" y="469" type="line"/>
      <point x="267" y="467"/>
      <point x="279" y="466"/>
      <point x="290" y="466" type="curve"/>
      <point x="303" y="443"/>
      <point x="316" y="415"/>
      <point x="328" y="382" type="curve"/>
      <point x="377" y="382" type="line"/>
      <point x="333" y="473" type="line"/>
      <point x="364" y="484"/>
      <point x="383" y="503"/>
      <point x="387" y="531" type="curve" smooth="yes"/>
      <point x="388" y="537" type="line" smooth="yes"/>
      <point x="395" y="581"/>
      <point x="368" y="617"/>
    </contour>
    <contour>
      <point x="302" y="579" type="curve" smooth="yes"/>
      <point x="336" y="579"/>
      <point x="348" y="562"/>
      <point x="344" y="540" type="curve" smooth="yes"/>
      <point x="343" y="535" type="line" smooth="yes"/>
      <point x="339" y="517"/>
      <point x="326" y="503"/>
      <point x="296" y="503" type="curve" smooth="yes"/>
      <point x="288" y="503"/>
      <point x="272" y="504"/>
      <point x="262" y="505" type="curve"/>
      <point x="271" y="577" type="line"/>
      <point x="279" y="578"/>
      <point x="295" y="579"/>
    </contour>
  </outline>
</glyph>
<glyph name="threesuperior" format="1">
  <advance width="400"/>
  <unicode hex="00B3"/>
  <outline>
    <contour>
      <point x="239" y="760" type="curve" smooth="yes"/>
      <point x="213" y="760"/>
      <point x="177" y="755"/>
      <point x="143" y="748" type="curve"/>
      <point x="134" y="689" type="line"/>
      <point x="162" y="696"/>
      <point x="196" y="702"/>
      <point x="225" y="702" type="curve" smooth="yes"/>
      <point x="272" y="702"/>
      <point x="289" y="681"/>
      <point x="284" y="644" type="curve" smooth="yes"/>
      <point x="283" y="637" type="line" smooth="yes"/>
      <point x="277" y="593"/>
      <point x="255" y="577"/>
      <point x="206" y="577" type="curve" smooth="yes"/>
      <point x="148" y="577" type="line"/>
      <point x="139" y="519" type="line"/>
      <point x="197" y="519" type="line" smooth="yes"/>
      <point x="253" y="519"/>
      <point x="269" y="493"/>
      <point x="264" y="450" type="curve" smooth="yes"/>
      <point x="263" y="442" type="line" smooth="yes"/>
      <point x="258" y="403"/>
      <point x="232" y="383"/>
      <point x="190" y="383" type="curve" smooth="yes"/>
      <point x="161" y="383"/>
      <point x="118" y="392"/>
      <point x="92" y="401" type="curve"/>
      <point x="84" y="341" type="line"/>
      <point x="116" y="330"/>
      <point x="162" y="323"/>
      <point x="187" y="323" type="curve" smooth="yes"/>
      <point x="284" y="323"/>
      <point x="332" y="369"/>
      <point x="342" y="440" type="curve" smooth="yes"/>
      <point x="343" y="447" type="line" smooth="yes"/>
      <point x="349" y="491"/>
      <point x="326" y="531"/>
      <point x="282" y="549" type="curve"/>
      <point x="327" y="566"/>
      <point x="351" y="599"/>
      <point x="356" y="639" type="curve" smooth="yes"/>
      <point x="357" y="646" type="line" smooth="yes"/>
      <point x="366" y="712"/>
      <point x="329" y="760"/>
    </contour>
  </outline>
</glyph>
<glyph name="acute" format="1">
  <advance width="240"/>
  <unicode hex="00B4"/>
  <outline>
    <contour>
      <point x="81" y="488" type="move" name="_top"/>
    </contour>
    <contour>
      <point x="101" y="546" type="line"/>
      <point x="210" y="685" type="line"/>
      <point x="120" y="685" type="line"/>
      <point x="30" y="546" type="line"/>
    </contour>
  </outline>
</glyph>
<glyph name="cedilla" format="1">
  <advance width="216"/>
  <unicode hex="00B8"/>
  <outline>
    <contour>
      <point x="108" y="0" type="move" name="_bottom"/>
    </contour>
    <contour>
      <point x="157" y="28" type="line"/>
      <point x="102" y="28" type="line"/>
      <point x="61" y="-60" type="line"/>
      <point x="58" y="-80" type="line"/>
      <point x="84" y="-80" type="line" smooth="yes"/>
      <point x="109" y="-80"/>
      <point x="121" y="-92"/>
      <point x="118" y="-113" type="curve"/>
      <point x="117" y="-120" type="line"/>
      <point x="115" y="-133"/>
      <point x="104" y="-143"/>
      <point x="82" y="-143" type="curve" smooth="yes"/>
      <point x="67" y="-143"/>
      <point x="51" y="-139"/>
      <point x="37" y="-133" type="curve"/>
      <point x="30" y="-188" type="line"/>
      <point x="47" y="-193"/>
      <point x="73" y="-197"/>
      <point x="89" y="-197" type="curve" smooth="yes"/>
      <point x="148" y="-197"/>
      <point x="178" y="-169"/>
      <point x="184" y="-121" type="curve" smooth="yes"/>
      <point x="185" y="-112" type="line" smooth="yes"/>
      <point x="190" y="-70"/>
      <point x="166" y="-41"/>
      <point x="129" y="-41" type="curve" smooth="yes"/>
      <point x="127" y="-41" type="line"/>
    </contour>
  </outline>
</glyph>
<glyph name="onesuperior" format="1">
  <advance width="400"/>
  <unicode hex="00B9"/>
  <outline>
    <contour>
      <point x="322" y="752" type="line"/>
      <point x="256" y="752" type="line"/>
      <point x="121" y="704" type="line"/>
      <point x="127" y="637" type="line"/>
      <point x="232" y="679" type="line"/>
      <point x="191" y="395" type="line"/>
      <point x="99" y="395" type="line"/>
      <point x="90" y="331" type="line"/>
      <point x="342" y="331" type="line"/>
      <point x="351" y="395" type="line"/>
      <point x="272" y="395" type="line"/>
    </contour>
  </outline>
</glyph>
<glyph name="ordmasculine" format="1">
  <advance width="492"/>
  <unicode hex="00BA"/>
  <outline>
    <contour>
      <point x="35" y="0" type="line"/>
      <point x="377" y="0" type="line"/>
      <point x="387" y="73" type="line"/>
      <point x="45" y="73" type="line"/>
    </contour>
    <contour>
      <point x="351" y="388" type="line"/>
      <point x="343" y="320"/>
      <point x="307" y="286"/>
      <point x="250" y="286" type="curve" smooth="yes"/>
      <point x="193" y="286"/>
      <point x="158" y="324"/>
      <point x="169" y="392" type="curve" smooth="yes"/>
      <point x="185" y="494" type="line" smooth="yes"/>
      <point x="195" y="562"/>
      <point x="230" y="596"/>
      <point x="287" y="596" type="curve" smooth="yes"/>
      <point x="344" y="596"/>
      <point x="377" y="559"/>
      <point x="367" y="491" type="curve" smooth="yes"/>
    </contour>
    <contour>
      <point x="450" y="482" type="line"/>
      <point x="466" y="594"/>
      <point x="414" y="667"/>
      <point x="291" y="667" type="curve" smooth="yes"/>
      <point x="168" y="667"/>
      <point x="117" y="602"/>
      <point x="99" y="489" type="curve" smooth="yes"/>
      <point x="85" y="400" type="line" smooth="yes"/>
      <point x="68" y="288"/>
      <point x="124" y="215"/>
      <point x="247" y="215" type="curve" smooth="yes"/>
      <point x="366" y="215"/>
      <point x="420" y="276"/>
      <point x="437" y="394" type="curve" smooth="yes"/>
    </contour>
  </outline>
</glyph>
<glyph name="onequarter" format="1">
  <advance width="1004"/>
  <unicode hex="00BC"/>
  <outline>
    <contour>
      <point x="272" y="0" type="line"/>
      <point x="355" y="0" type="line"/>
      <point x="744" y="601" type="line"/>
      <point x="661" y="601" type="line"/>
    </contour>
    <contour>
      <point x="839" y="421" type="line"/>
      <point x="763" y="421" type="line"/>
      <point x="618" y="132" type="line"/>
      <point x="633" y="90" type="line"/>
      <point x="804" y="90" type="line"/>
      <point x="791" y="0" type="line"/>
      <point x="868" y="0" type="line"/>
      <point x="881" y="90" type="line"/>
      <point x="937" y="90" type="line"/>
      <point x="945" y="152" type="line"/>
      <point x="889" y="152" type="line"/>
      <point x="908" y="286" type="line"/>
      <point x="832" y="286" type="line"/>
      <point x="814" y="159" type="line"/>
      <point x="813" y="152" type="line"/>
      <point x="708" y="152" type="line"/>
    </contour>
    <contour>
      <point x="302" y="602" type="line"/>
      <point x="236" y="602" type="line"/>
      <point x="101" y="554" type="line"/>
      <point x="107" y="487" type="line"/>
      <point x="212" y="529" type="line"/>
      <point x="171" y="245" type="line"/>
      <point x="79" y="245" type="line"/>
      <point x="70" y="181" type="line"/>
      <point x="322" y="181" type="line"/>
      <point x="331" y="245" type="line"/>
      <point x="252" y="245" type="line"/>
    </contour>
  </outline>
</glyph>
<glyph name="AE" format="1">
  <advance width="761"/>
  <unicode hex="00C6"/>
  <outline>
    <contour>
      <point x="570" y="655" type="move" name="top"/>
    </contour>
    <contour>
      <point x="740" y="655" type="line"/>
      <point x="342" y="655" type="line"/>
      <point x="-46" y="0" type="line"/>
      <point x="46" y="0" type="line"/>
      <point x="77" y="51"/>
      <point x="107" y="101"/>
      <point x="138" y="152" type="curve"/>
      <point x="333" y="152" type="line"/>
      <point x="315" y="0" type="line"/>
      <point x="660" y="0" type="line"/>
      <point x="668" y="77" type="line"/>
      <point x="408" y="77" type="line"/>
      <point x="435" y="295" type="line"/>
      <point x="675" y="295" type="line"/>
      <point x="685" y="371" type="line"/>
      <point x="445" y="371" type="line"/>
      <point x="470" y="578" type="line"/>
      <point x="730" y="578" type="line"/>
    </contour>
    <contour>
      <point x="343" y="228" type="line"/>
      <point x="183" y="228" type="line"/>
      <point x="261" y="362"/>
      <point x="330" y="485"/>
      <point x="387" y="592" type="curve"/>
    </contour>
  </outline>
</glyph>
<glyph name="Ccedilla" format="1">
  <advance width="476"/>
  <unicode hex="00C7"/>
  <outline>
    <contour>
      <point x="238" y="0" type="move" name="_bottom"/>
    </contour>
    <contour>
      <point x="238" y="0" type="move" name="bottom"/>
    </contour>
    <contour>
      <point x="314" y="655" type="move" name="top"/>
    </contour>
    <contour>
      <point x="303" y="667" type="curve" smooth="yes"/>
      <point x="179" y="667"/>
      <point x="107" y="603"/>
      <point x="90" y="463" type="curve" smooth="yes"/>
      <point x="59" y="207" type="line" smooth="yes"/>
      <point x="42" y="64"/>
      <point x="95" y="-7"/>
      <point x="214" y="-12" type="curve"/>
      <point x="191" y="-60" type="line"/>
      <point x="188" y="-80" type="line"/>
      <point x="214" y="-80" type="line" smooth="yes"/>
      <point x="239" y="-80"/>
      <point x="251" y="-92"/>
      <point x="248" y="-113" type="curve" smooth="yes"/>
      <point x="247" y="-120" type="line" smooth="yes"/>
      <point x="245" y="-133"/>
      <point x="234" y="-143"/>
      <point x="212" y="-143" type="curve" smooth="yes"/>
      <point x="197" y="-143"/>
      <point x="181" y="-139"/>
      <point x="167" y="-133" type="curve"/>
      <point x="160" y="-188" type="line"/>
      <point x="177" y="-193"/>
      <point x="203" y="-197"/>
      <point x="219" y="-197" type="curve" smooth="yes"/>
      <point x="278" y="-197"/>
      <point x="308" y="-169"/>
      <point x="314" y="-121" type="curve" smooth="yes"/>
      <point x="315" y="-112" type="line" smooth="yes"/>
      <point x="320" y="-70"/>
      <point x="296" y="-41"/>
      <point x="259" y="-41" type="curve" smooth="yes"/>
      <point x="257" y="-41" type="line"/>
      <point x="271" y="-9" type="line"/>
      <point x="310" y="-3"/>
      <point x="353" y="9"/>
      <point x="383" y="24" type="curve"/>
      <point x="391" y="104" type="line"/>
      <point x="335" y="79"/>
      <point x="287" y="66"/>
      <point x="241" y="66" type="curve" smooth="yes"/>
      <point x="163" y="66"/>
      <point x="132" y="100"/>
      <point x="143" y="194" type="curve" smooth="yes"/>
      <point x="176" y="469" type="line" smooth="yes"/>
      <point x="186" y="555"/>
      <point x="229" y="593"/>
      <point x="301" y="593" type="curve" smooth="yes"/>
      <point x="341" y="593"/>
      <point x="395" y="581"/>
      <point x="441" y="563" type="curve"/>
      <point x="452" y="643" type="line"/>
      <point x="405" y="658"/>
      <point x="347" y="667"/>
    </contour>
  </outline>
</glyph>
<glyph name="Eth" format="1">
  <advance width="576"/>
  <unicode hex="00D0"/>
  <outline>
    <contour>
      <point x="294" y="667" type="curve" smooth="yes"/>
      <point x="229" y="667"/>
      <point x="166" y="665"/>
      <point x="124" y="662" type="curve"/>
      <point x="88" y="373" type="line"/>
      <point x="19" y="373" type="line"/>
      <point x="9" y="303" type="line"/>
      <point x="79" y="303" type="line"/>
      <point x="42" y="-3" type="line"/>
      <point x="103" y="-9"/>
      <point x="152" y="-12"/>
      <point x="219" y="-12" type="curve" smooth="yes"/>
      <point x="394" y="-12"/>
      <point x="480" y="73"/>
      <point x="500" y="229" type="curve" smooth="yes"/>
      <point x="521" y="395" type="line" smooth="yes"/>
      <point x="542" y="563"/>
      <point x="461" y="667"/>
    </contour>
    <contour>
      <point x="288" y="595" type="curve" smooth="yes"/>
      <point x="395" y="595"/>
      <point x="453" y="531"/>
      <point x="437" y="402" type="curve" smooth="yes"/>
      <point x="415" y="227" type="line" smooth="yes"/>
      <point x="402" y="121"/>
      <point x="329" y="61"/>
      <point x="227" y="61" type="curve" smooth="yes"/>
      <point x="202" y="61"/>
      <point x="174" y="63"/>
      <point x="135" y="68" type="curve"/>
      <point x="164" y="303" type="line"/>
      <point x="299" y="303" type="line"/>
      <point x="309" y="373" type="line"/>
      <point x="172" y="373" type="line"/>
      <point x="200" y="593" type="line"/>
      <point x="226" y="594"/>
      <point x="268" y="595"/>
    </contour>
  </outline>
</glyph>
<glyph name="multiply" format="1">
  <advance width="390"/>
  <unicode hex="00D7"/>
  <outline>
    <contour>
      <point x="326" y="458" type="line"/>
      <point x="205" y="352" type="line"/>
      <point x="112" y="460" type="line"/>
      <point x="52" y="406" type="line"/>
      <point x="143" y="298" type="line"/>
      <point x="24" y="193" type="line"/>
      <point x="67" y="143" type="line"/>
      <point x="186" y="248" type="line"/>
      <point x="279" y="141" type="line"/>
      <point x="341" y="194" type="line"/>
      <point x="248" y="302" type="line"/>
      <point x="369" y="408" type="line"/>
    </contour>
  </outline>
</glyph>
<glyph name="Oslash" format="1">
  <advance width="576"/>
  <unicode hex="00D8"/>
  <outline>
    <contour>
      <point x="334" y="655" type="move" name="top"/>
    </contour>
    <contour>
      <point x="602" y="705" type="line"/>
      <point x="513" y="705" type="line"/>
      <point x="460" y="630" type="line"/>
      <point x="427" y="654"/>
      <point x="382" y="667"/>
      <point x="327" y="667" type="curve" smooth="yes"/>
      <point x="179" y="667"/>
      <point x="107" y="600"/>
      <point x="89" y="457" type="curve" smooth="yes"/>
      <point x="58" y="208" type="line" smooth="yes"/>
      <point x="51" y="155"/>
      <point x="57" y="110"/>
      <point x="75" y="75" type="curve"/>
      <point x="-15" y="-50" type="line"/>
      <point x="74" y="-50" type="line"/>
      <point x="126" y="20" type="line"/>
      <point x="158" y="0"/>
      <point x="201" y="-12"/>
      <point x="256" y="-12" type="curve" smooth="yes"/>
      <point x="401" y="-12"/>
      <point x="477" y="60"/>
      <point x="494" y="198" type="curve" smooth="yes"/>
      <point x="525" y="447" type="line" smooth="yes"/>
      <point x="531" y="497"/>
      <point x="525" y="540"/>
      <point x="508" y="575" type="curve"/>
    </contour>
    <contour>
      <point x="442" y="487" type="line"/>
      <point x="442" y="478"/>
      <point x="442" y="468"/>
      <point x="441" y="458" type="curve"/>
      <point x="408" y="191" type="line" smooth="yes"/>
      <point x="397" y="104"/>
      <point x="347" y="63"/>
      <point x="261" y="63" type="curve" smooth="yes"/>
      <point x="221" y="63"/>
      <point x="190" y="72"/>
      <point x="169" y="92" type="curve"/>
    </contour>
    <contour>
      <point x="321" y="592" type="curve" smooth="yes"/>
      <point x="364" y="592"/>
      <point x="397" y="581"/>
      <point x="417" y="560" type="curve"/>
      <point x="140" y="159" type="line"/>
      <point x="139" y="170"/>
      <point x="140" y="183"/>
      <point x="142" y="197" type="curve" smooth="yes"/>
      <point x="174" y="465" type="line" smooth="yes"/>
      <point x="184" y="551"/>
      <point x="234" y="592"/>
    </contour>
  </outline>
</glyph>
<glyph name="ae" format="1">
  <advance width="700"/>
  <unicode hex="00E6"/>
  <outline>
    <contour>
      <point x="424" y="488" type="move" name="top"/>
    </contour>
    <contour>
      <point x="527" y="500" type="curve" smooth="yes"/>
      <point x="463" y="500"/>
      <point x="407" y="470"/>
      <point x="369" y="411" type="curve"/>
      <point x="341" y="459"/>
      <point x="280" y="500"/>
      <point x="224" y="500" type="curve" smooth="yes"/>
      <point x="142" y="500"/>
      <point x="84" y="443"/>
      <point x="66" y="331" type="curve" smooth="yes"/>
      <point x="39" y="164" type="line" smooth="yes"/>
      <point x="25" y="89"/>
      <point x="45" y="-12"/>
      <point x="146" y="-12" type="curve" smooth="yes"/>
      <point x="206" y="-12"/>
      <point x="260" y="29"/>
      <point x="304" y="125" type="curve"/>
      <point x="307" y="33"/>
      <point x="354" y="-12"/>
      <point x="448" y="-12" type="curve" smooth="yes"/>
      <point x="488" y="-12"/>
      <point x="544" y="2"/>
      <point x="589" y="23" type="curve"/>
      <point x="604" y="100" type="line"/>
      <point x="559" y="77"/>
      <point x="505" y="61"/>
      <point x="462" y="61" type="curve" smooth="yes"/>
      <point x="404" y="61"/>
      <point x="378" y="94"/>
      <point x="390" y="162" type="curve" smooth="yes"/>
      <point x="392" y="173" type="line"/>
      <point x="591" y="190"/>
      <point x="669" y="277"/>
      <point x="669" y="374" type="curve" smooth="yes"/>
      <point x="669" y="450"/>
      <point x="617" y="500"/>
    </contour>
    <contour>
      <point x="244" y="424" type="curve" smooth="yes"/>
      <point x="280" y="424"/>
      <point x="323" y="397"/>
      <point x="345" y="361" type="curve"/>
      <point x="332" y="327"/>
      <point x="323" y="291"/>
      <point x="321" y="270" type="curve" smooth="yes"/>
      <point x="316" y="220"/>
      <point x="256" y="64"/>
      <point x="170" y="64" type="curve" smooth="yes"/>
      <point x="113" y="64"/>
      <point x="118" y="124"/>
      <point x="126" y="175" type="curve" smooth="yes"/>
      <point x="150" y="323" type="line" smooth="yes"/>
      <point x="162" y="397"/>
      <point x="193" y="424"/>
    </contour>
    <contour>
      <point x="524" y="429" type="curve" smooth="yes"/>
      <point x="561" y="429"/>
      <point x="585" y="406"/>
      <point x="585" y="367" type="curve" smooth="yes"/>
      <point x="585" y="326"/>
      <point x="562" y="291"/>
      <point x="508" y="254" type="curve"/>
      <point x="480" y="243"/>
      <point x="444" y="234"/>
      <point x="400" y="227" type="curve"/>
      <point x="407" y="272" type="line" smooth="yes"/>
      <point x="423" y="378"/>
      <point x="474" y="429"/>
    </contour>
  </outline>
</glyph>
<glyph name="divide" format="1">
  <advance width="390"/>
  <unicode hex="00F7"/>
  <outline>
    <contour>
      <point x="379" y="335" type="line"/>
      <point x="25" y="335" type="line"/>
      <point x="15" y="265" type="line"/>
      <point x="369" y="265" type="line"/>
    </contour>
    <contour>
      <point x="185" y="215" type="curve" smooth="yes"/>
      <point x="153" y="215"/>
      <point x="136" y="198"/>
      <point x="131" y="171" type="curve" smooth="yes"/>
      <point x="128" y="154" type="line" smooth="yes"/>
      <point x="124" y="128"/>
      <point x="138" y="111"/>
      <point x="170" y="111" type="curve" smooth="yes"/>
      <point x="203" y="111"/>
      <point x="221" y="128"/>
      <point x="225" y="154" type="curve" smooth="yes"/>
      <point x="228" y="171" type="line" smooth="yes"/>
      <point x="233" y="198"/>
      <point x="218" y="215"/>
    </contour>
    <contour>
      <point x="223" y="489" type="curve" smooth="yes"/>
      <point x="191" y="489"/>
      <point x="173" y="472"/>
      <point x="169" y="445" type="curve" smooth="yes"/>
      <point x="167" y="428" type="line" smooth="yes"/>
      <point x="163" y="402"/>
      <point x="177" y="385"/>
      <point x="209" y="385" type="curve" smooth="yes"/>
      <point x="242" y="385"/>
      <point x="260" y="402"/>
      <point x="264" y="428" type="curve" smooth="yes"/>
      <point x="266" y="445" type="line" smooth="yes"/>
      <point x="270" y="472"/>
      <point x="256" y="489"/>
    </contour>
  </outline>
</glyph>
<glyph name="Aogonek" format="1">
  <advance width="532"/>
  <unicode hex="0104"/>
  <outline>
    <contour>
      <point x="362" y="655" type="line"/>
      <point x="257" y="655" type="line"/>
      <point x="-23" y="0" type="line"/>
      <point x="67" y="0" type="line"/>
      <point x="89" y="50"/>
      <point x="110" y="101"/>
      <point x="131" y="152" type="curve"/>
      <point x="370" y="152" type="line"/>
      <point x="378" y="102"/>
      <point x="386" y="51"/>
      <point x="392" y="1" type="curve"/>
      <point x="351" y="-24"/>
      <point x="323" y="-65"/>
      <point x="318" y="-103" type="curve" smooth="yes"/>
      <point x="316" y="-116" type="line" smooth="yes"/>
      <point x="309" y="-164"/>
      <point x="336" y="-197"/>
      <point x="404" y="-197" type="curve" smooth="yes"/>
      <point x="419" y="-197"/>
      <point x="435" y="-196"/>
      <point x="453" y="-192" type="curve"/>
      <point x="461" y="-131" type="line"/>
      <point x="449" y="-133"/>
      <point x="437" y="-134"/>
      <point x="428" y="-134" type="curve" smooth="yes"/>
      <point x="398" y="-134"/>
      <point x="387" y="-123"/>
      <point x="391" y="-97" type="curve" smooth="yes"/>
      <point x="392" y="-87" type="line" smooth="yes"/>
      <point x="397" y="-53"/>
      <point x="421" y="-19"/>
      <point x="460" y="0" type="curve"/>
      <point x="483" y="0" type="line"/>
    </contour>
    <contour>
      <point x="299" y="576" type="curve"/>
      <point x="320" y="461"/>
      <point x="340" y="344"/>
      <point x="358" y="228" type="curve"/>
      <point x="163" y="228" type="line"/>
      <point x="210" y="343"/>
      <point x="255" y="459"/>
    </contour>
  </outline>
</glyph>
<glyph name="dcaron" format="1">
  <advance width="540"/>
  <unicode hex="010F"/>
  <outline>
    <contour>
      <point x="238" y="244" type="move" name="center"/>
    </contour>
    <contour>
      <point x="540" y="488" type="move" name="topleft"/>
    </contour>
    <contour>
      <point x="589" y="649" type="line"/>
      <point x="594" y="679"/>
      <point x="577" y="695"/>
      <point x="542" y="695" type="curve" smooth="yes"/>
      <point x="512" y="695"/>
      <point x="500" y="683"/>
      <point x="496" y="658" type="curve" smooth="yes"/>
      <point x="493" y="638" type="line" smooth="yes"/>
      <point x="490" y="617"/>
      <point x="497" y="603"/>
      <point x="517" y="596" type="curve"/>
      <point x="491" y="525" type="line"/>
      <point x="543" y="525" type="line"/>
      <point x="571" y="584" type="line" smooth="yes"/>
      <point x="579" y="601"/>
      <point x="583" y="612"/>
      <point x="586" y="629" type="curve" smooth="yes"/>
    </contour>
    <contour>
      <point x="461" y="683" type="line"/>
      <point x="376" y="683" type="line"/>
      <point x="343" y="443" type="line"/>
      <point x="311" y="478"/>
      <point x="269" y="500"/>
      <point x="225" y="500" type="curve" smooth="yes"/>
      <point x="146" y="500"/>
      <point x="85" y="447"/>
      <point x="66" y="331" type="curve" smooth="yes"/>
      <point x="39" y="164" type="line" smooth="yes"/>
      <point x="20" y="49"/>
      <point x="71" y="-12"/>
      <point x="146" y="-12" type="curve" smooth="yes"/>
      <point x="218" y="-12"/>
      <point x="282" y="48"/>
      <point x="330" y="191" type="curve"/>
      <point x="333" y="192" type="line"/>
      <point x="335" y="190" type="line"/>
      <point x="294" y="65" type="line"/>
      <point x="285" y="0" type="line"/>
      <point x="366" y="0" type="line"/>
    </contour>
    <contour>
      <point x="238" y="424" type="curve" smooth="yes"/>
      <point x="272" y="424"/>
      <point x="307" y="406"/>
      <point x="333" y="374" type="curve"/>
      <point x="320" y="276" type="line"/>
      <point x="301" y="186"/>
      <point x="250" y="64"/>
      <point x="170" y="64" type="curve" smooth="yes"/>
      <point x="131" y="64"/>
      <point x="112" y="90"/>
      <point x="126" y="175" type="curve" smooth="yes"/>
      <point x="150" y="322" type="line" smooth="yes"/>
      <point x="162" y="396"/>
      <point x="193" y="424"/>
    </contour>
  </outline>
</glyph>
<glyph name="Eogonek" format="1">
  <advance width="485"/>
  <unicode hex="0118"/>
  <outline>
    <contour>
      <point x="464" y="655" type="line"/>
      <point x="119" y="655" type="line"/>
      <point x="39" y="0" type="line"/>
      <point x="249" y="0" type="line"/>
      <point x="210" y="-25"/>
      <point x="182" y="-65"/>
      <point x="177" y="-103" type="curve" smooth="yes"/>
      <point x="175" y="-116" type="line" smooth="yes"/>
      <point x="168" y="-164"/>
      <point x="195" y="-197"/>
      <point x="263" y="-197" type="curve" smooth="yes"/>
      <point x="278" y="-197"/>
      <point x="294" y="-196"/>
      <point x="312" y="-192" type="curve"/>
      <point x="320" y="-131" type="line"/>
      <point x="308" y="-133"/>
      <point x="296" y="-134"/>
      <point x="287" y="-134" type="curve" smooth="yes"/>
      <point x="257" y="-134"/>
      <point x="246" y="-123"/>
      <point x="250" y="-97" type="curve" smooth="yes"/>
      <point x="251" y="-87" type="line" smooth="yes"/>
      <point x="256" y="-53"/>
      <point x="280" y="-19"/>
      <point x="319" y="0" type="curve"/>
      <point x="384" y="0" type="line"/>
      <point x="392" y="77" type="line"/>
      <point x="132" y="77" type="line"/>
      <point x="159" y="295" type="line"/>
      <point x="399" y="295" type="line"/>
      <point x="409" y="371" type="line"/>
      <point x="169" y="371" type="line"/>
      <point x="194" y="578" type="line"/>
      <point x="454" y="578" type="line"/>
    </contour>
  </outline>
</glyph>
<glyph name="eogonek" format="1">
  <advance width="436"/>
  <unicode hex="0119"/>
  <outline>
    <contour>
      <point x="263" y="500" type="curve" smooth="yes"/>
      <point x="160" y="500"/>
      <point x="80" y="424"/>
      <point x="57" y="268" type="curve" smooth="yes"/>
      <point x="45" y="190" type="line" smooth="yes"/>
      <point x="25" y="54"/>
      <point x="70" y="-11"/>
      <point x="183" y="-12" type="curve"/>
      <point x="152" y="-37"/>
      <point x="131" y="-71"/>
      <point x="127" y="-103" type="curve" smooth="yes"/>
      <point x="125" y="-116" type="line" smooth="yes"/>
      <point x="118" y="-164"/>
      <point x="145" y="-197"/>
      <point x="213" y="-197" type="curve" smooth="yes"/>
      <point x="228" y="-197"/>
      <point x="244" y="-196"/>
      <point x="262" y="-192" type="curve"/>
      <point x="270" y="-131" type="line"/>
      <point x="258" y="-133"/>
      <point x="246" y="-134"/>
      <point x="237" y="-134" type="curve" smooth="yes"/>
      <point x="207" y="-134"/>
      <point x="196" y="-123"/>
      <point x="200" y="-97" type="curve" smooth="yes"/>
      <point x="201" y="-87" type="line" smooth="yes"/>
      <point x="207" y="-49"/>
      <point x="238" y="-10"/>
      <point x="286" y="7" type="curve"/>
      <point x="298" y="11"/>
      <point x="314" y="18"/>
      <point x="325" y="23" type="curve"/>
      <point x="340" y="100" type="line"/>
      <point x="295" y="77"/>
      <point x="241" y="61"/>
      <point x="198" y="61" type="curve" smooth="yes"/>
      <point x="140" y="61"/>
      <point x="120" y="91"/>
      <point x="126" y="162" type="curve" smooth="yes"/>
      <point x="127" y="173" type="line"/>
      <point x="326" y="190"/>
      <point x="404" y="277"/>
      <point x="405" y="374" type="curve" smooth="yes"/>
      <point x="406" y="450"/>
      <point x="353" y="500"/>
    </contour>
    <contour>
      <point x="260" y="429" type="curve" smooth="yes"/>
      <point x="297" y="429"/>
      <point x="321" y="406"/>
      <point x="321" y="367" type="curve" smooth="yes"/>
      <point x="321" y="326"/>
      <point x="298" y="291"/>
      <point x="244" y="254" type="curve"/>
      <point x="216" y="243"/>
      <point x="180" y="234"/>
      <point x="136" y="227" type="curve"/>
      <point x="143" y="272" type="line" smooth="yes"/>
      <point x="159" y="378"/>
      <point x="210" y="429"/>
    </contour>
  </outline>
</glyph>
<glyph name="lcaron" format="1">
  <advance width="278"/>
  <unicode hex="013E"/>
  <outline>
    <contour>
      <point x="60" y="0" type="move" name="bottom"/>
    </contour>
    <contour>
      <point x="253" y="440" type="move" name="center"/>
    </contour>
    <contour>
      <point x="162" y="655" type="move" name="top"/>
    </contour>
    <contour>
      <point x="205" y="488" type="move" name="topright"/>
    </contour>
    <contour>
      <point x="327" y="649" type="line"/>
      <point x="332" y="679"/>
      <point x="315" y="695"/>
      <point x="280" y="695" type="curve" smooth="yes"/>
      <point x="250" y="695"/>
      <point x="238" y="683"/>
      <point x="234" y="658" type="curve" smooth="yes"/>
      <point x="231" y="638" type="line" smooth="yes"/>
      <point x="228" y="617"/>
      <point x="235" y="603"/>
      <point x="255" y="596" type="curve"/>
      <point x="229" y="525" type="line"/>
      <point x="281" y="525" type="line"/>
      <point x="309" y="584" type="line" smooth="yes"/>
      <point x="317" y="601"/>
      <point x="321" y="612"/>
      <point x="324" y="629" type="curve" smooth="yes"/>
    </contour>
    <contour>
      <point x="114" y="683" type="line"/>
      <point x="112" y="616"/>
      <point x="107" y="552"/>
      <point x="94" y="458" type="curve" smooth="yes"/>
      <point x="30" y="0" type="line"/>
      <point x="115" y="0" type="line"/>
      <point x="180" y="464" type="line" smooth="yes"/>
      <point x="194" y="564"/>
      <point x="198" y="632"/>
      <point x="199" y="683" type="curve"/>
    </contour>
  </outline>
</glyph>
<glyph name="Lslash" format="1">
  <advance width="453"/>
  <unicode hex="0141"/>
  <outline>
    <contour>
      <point x="18" y="344" type="line"/>
      <point x="7" y="268" type="line"/>
      <point x="80" y="287" type="line"/>
      <point x="40" y="0" type="line"/>
      <point x="385" y="0" type="line"/>
      <point x="395" y="75" type="line"/>
      <point x="135" y="75" type="line"/>
      <point x="168" y="311" type="line"/>
      <point x="303" y="348" type="line"/>
      <point x="314" y="424" type="line"/>
      <point x="179" y="387" type="line"/>
      <point x="217" y="655" type="line"/>
      <point x="132" y="655" type="line"/>
      <point x="91" y="363" type="line"/>
    </contour>
  </outline>
</glyph>
<glyph name="OE" format="1">
  <advance width="772"/>
  <unicode hex="0152"/>
  <outline>
    <contour>
      <point x="386" y="655" type="move" name="top"/>
    </contour>
    <contour>
      <point x="320" y="667" type="curve" smooth="yes"/>
      <point x="185" y="667"/>
      <point x="113" y="592"/>
      <point x="94" y="460" type="curve" smooth="yes"/>
      <point x="59" y="211" type="line" smooth="yes"/>
      <point x="40" y="79"/>
      <point x="97" y="-12"/>
      <point x="244" y="-12" type="curve" smooth="yes"/>
      <point x="274" y="-12"/>
      <point x="301" y="-8"/>
      <point x="326" y="0" type="curve"/>
      <point x="671" y="0" type="line"/>
      <point x="679" y="77" type="line"/>
      <point x="419" y="77" type="line"/>
      <point x="446" y="295" type="line"/>
      <point x="686" y="295" type="line"/>
      <point x="696" y="371" type="line"/>
      <point x="456" y="371" type="line"/>
      <point x="481" y="578" type="line"/>
      <point x="741" y="578" type="line"/>
      <point x="751" y="655" type="line"/>
      <point x="412" y="655" type="line"/>
      <point x="384" y="662"/>
      <point x="353" y="667"/>
    </contour>
    <contour>
      <point x="320" y="593" type="curve" smooth="yes"/>
      <point x="347" y="593"/>
      <point x="374" y="587"/>
      <point x="396" y="579" type="curve"/>
      <point x="335" y="79" type="line"/>
      <point x="313" y="69"/>
      <point x="289" y="64"/>
      <point x="256" y="64" type="curve" smooth="yes"/>
      <point x="172" y="64"/>
      <point x="131" y="118"/>
      <point x="143" y="202" type="curve" smooth="yes"/>
      <point x="180" y="470" type="line" smooth="yes"/>
      <point x="192" y="554"/>
      <point x="241" y="593"/>
    </contour>
  </outline>
</glyph>
<glyph name="Uogonek" format="1">
  <advance width="576"/>
  <unicode hex="0172"/>
  <outline>
    <contour>
      <point x="545" y="655" type="line"/>
      <point x="460" y="655" type="line"/>
      <point x="403" y="194" type="line" smooth="yes"/>
      <point x="392" y="104"/>
      <point x="347" y="65"/>
      <point x="267" y="65" type="curve" smooth="yes"/>
      <point x="181" y="65"/>
      <point x="136" y="112"/>
      <point x="147" y="197" type="curve" smooth="yes"/>
      <point x="204" y="655" type="line"/>
      <point x="119" y="655" type="line"/>
      <point x="63" y="204" type="line" smooth="yes"/>
      <point x="46" y="71"/>
      <point x="111" y="-9"/>
      <point x="252" y="-12" type="curve"/>
      <point x="221" y="-37"/>
      <point x="200" y="-71"/>
      <point x="196" y="-103" type="curve" smooth="yes"/>
      <point x="194" y="-116" type="line" smooth="yes"/>
      <point x="187" y="-164"/>
      <point x="214" y="-197"/>
      <point x="282" y="-197" type="curve" smooth="yes"/>
      <point x="297" y="-197"/>
      <point x="313" y="-196"/>
      <point x="331" y="-192" type="curve"/>
      <point x="339" y="-131" type="line"/>
      <point x="327" y="-133"/>
      <point x="315" y="-134"/>
      <point x="306" y="-134" type="curve" smooth="yes"/>
      <point x="276" y="-134"/>
      <point x="265" y="-123"/>
      <point x="269" y="-97" type="curve" smooth="yes"/>
      <point x="270" y="-87" type="line" smooth="yes"/>
      <point x="275" y="-56"/>
      <point x="296" y="-25"/>
      <point x="328" y="-5" type="curve"/>
      <point x="423" y="14"/>
      <point x="474" y="82"/>
      <point x="489" y="201" type="curve" smooth="yes"/>
    </contour>
  </outline>
</glyph>
<glyph name="florin" format="1">
  <advance width="313"/>
  <unicode hex="0192"/>
  <outline>
    <contour>
      <point x="275" y="613" type="curve" smooth="yes"/>
      <point x="184" y="613"/>
      <point x="128" y="565"/>
      <point x="113" y="457" type="curve" smooth="yes"/>
      <point x="105" y="400" type="line"/>
      <point x="29" y="386" type="line"/>
      <point x="22" y="336" type="line"/>
      <point x="96" y="336" type="line"/>
      <point x="23" y="-185" type="line"/>
      <point x="109" y="-185" type="line"/>
      <point x="181" y="336" type="line"/>
      <point x="271" y="336" type="line"/>
      <point x="281" y="406" type="line"/>
      <point x="191" y="406" type="line"/>
      <point x="199" y="462" type="line" smooth="yes"/>
      <point x="208" y="525"/>
      <point x="231" y="544"/>
      <point x="269" y="544" type="curve" smooth="yes"/>
      <point x="290" y="544"/>
      <point x="318" y="539"/>
      <point x="343" y="532" type="curve"/>
      <point x="352" y="602" type="line"/>
      <point x="331" y="608"/>
      <point x="297" y="613"/>
    </contour>
  </outline>
</glyph>
<glyph name="circumflex" format="1">
  <advance width="329"/>
  <unicode hex="02C6"/>
  <outline>
    <contour>
      <point x="165" y="488" type="move" name="_top"/>
    </contour>
    <contour>
      <point x="172" y="613" type="line"/>
      <point x="290" y="546" type="line"/>
      <point x="299" y="613" type="line"/>
      <point x="180" y="690" type="line"/>
      <point x="39" y="618" type="line"/>
      <point x="30" y="546" type="line"/>
    </contour>
  </outline>
</glyph>
<glyph name="uni02C9" format="1">
  <advance width="285"/>
  <unicode hex="02C9"/>
  <outline>
    <contour>
      <point x="143" y="488" type="move" name="_top"/>
    </contour>
    <contour>
      <point x="30" y="606" type="line"/>
      <point x="245" y="606" type="line"/>
      <point x="255" y="681" type="line"/>
      <point x="40" y="681" type="line"/>
    </contour>
  </outline>
</glyph>
<glyph name="dotaccent" format="1">
  <advance width="175"/>
  <unicode hex="02D9"/>
  <outline>
    <contour>
      <point x="86" y="636" type="move" name="_center"/>
    </contour>
    <contour>
      <point x="88" y="488" type="move" name="_top"/>
    </contour>
    <contour>
      <point x="145" y="646" type="line"/>
      <point x="149" y="676"/>
      <point x="128" y="695"/>
      <point x="92" y="695" type="curve" smooth="yes"/>
      <point x="57" y="695"/>
      <point x="38" y="682"/>
      <point x="34" y="652" type="curve" smooth="yes"/>
      <point x="30" y="623" type="line" smooth="yes"/>
      <point x="26" y="593"/>
      <point x="48" y="575"/>
      <point x="83" y="575" type="curve" smooth="yes"/>
      <point x="119" y="575"/>
      <point x="137" y="588"/>
      <point x="141" y="617" type="curve" smooth="yes"/>
    </contour>
  </outline>
</glyph>
<glyph name="ring" format="1">
  <advance width="286"/>
  <unicode hex="02DA"/>
  <outline>
    <contour>
      <point x="143" y="488" type="move" name="_top"/>
    </contour>
    <contour>
      <point x="149" y="723" type="curve" smooth="yes"/>
      <point x="73" y="723"/>
      <point x="30" y="682"/>
      <point x="30" y="619" type="curve" smooth="yes"/>
      <point x="30" y="563"/>
      <point x="77" y="529"/>
      <point x="137" y="529" type="curve" smooth="yes"/>
      <point x="215" y="529"/>
      <point x="256" y="574"/>
      <point x="256" y="634" type="curve" smooth="yes"/>
      <point x="256" y="688"/>
      <point x="211" y="723"/>
    </contour>
    <contour>
      <point x="147" y="672" type="curve" smooth="yes"/>
      <point x="177" y="672"/>
      <point x="195" y="657"/>
      <point x="195" y="632" type="curve" smooth="yes"/>
      <point x="195" y="596"/>
      <point x="181" y="580"/>
      <point x="141" y="580" type="curve" smooth="yes"/>
      <point x="109" y="580"/>
      <point x="92" y="598"/>
      <point x="92" y="623" type="curve" smooth="yes"/>
      <point x="92" y="658"/>
      <point x="107" y="672"/>
    </contour>
  </outline>
</glyph>
<glyph name="tilde" format="1">
  <advance width="334"/>
  <unicode hex="02DC"/>
  <outline>
    <contour>
      <point x="167" y="488" type="move" name="_top"/>
    </contour>
    <contour>
      <point x="304" y="685" type="line"/>
      <point x="304" y="685"/>
      <point x="255" y="660"/>
      <point x="222" y="660" type="curve" smooth="yes"/>
      <point x="188" y="660"/>
      <point x="174" y="685"/>
      <point x="124" y="685" type="curve" smooth="yes"/>
      <point x="78" y="685"/>
      <point x="40" y="653"/>
      <point x="40" y="653" type="curve"/>
      <point x="30" y="585" type="line"/>
      <point x="30" y="585"/>
      <point x="78" y="610"/>
      <point x="111" y="610" type="curve" smooth="yes"/>
      <point x="148" y="610"/>
      <point x="170" y="585"/>
      <point x="210" y="585" type="curve" smooth="yes"/>
      <point x="256" y="585"/>
      <point x="294" y="613"/>
      <point x="294" y="613" type="curve"/>
    </contour>
  </outline>
</glyph>
<glyph name="hungarumlaut" format="1">
  <advance width="361"/>
  <unicode hex="02DD"/>
  <outline>
    <contour>
      <point x="146" y="488" type="move" name="_top"/>
    </contour>
    <contour>
      <point x="331" y="685" type="line"/>
      <point x="251" y="685" type="line"/>
      <point x="166" y="546" type="line"/>
      <point x="239" y="546" type="line"/>
    </contour>
    <contour>
      <point x="191" y="685" type="line"/>
      <point x="111" y="685" type="line"/>
      <point x="26" y="546" type="line"/>
      <point x="99" y="546" type="line"/>
    </contour>
  </outline>
</glyph>
<glyph name="commaturnedabove" format="1">
  <advance width="159"/>
  <unicode hex="0312"/>
  <outline>
    <contour>
      <point x="80" y="488" type="move" name="_top"/>
    </contour>
    <contour>
      <point x="31" y="604" type="line"/>
      <point x="26" y="574"/>
      <point x="43" y="558"/>
      <point x="78" y="558" type="curve" smooth="yes"/>
      <point x="108" y="558"/>
      <point x="120" y="570"/>
      <point x="124" y="595" type="curve" smooth="yes"/>
      <point x="127" y="615" type="line" smooth="yes"/>
      <point x="130" y="636"/>
      <point x="123" y="650"/>
      <point x="103" y="657" type="curve"/>
      <point x="129" y="728" type="line"/>
      <point x="77" y="728" type="line"/>
      <point x="49" y="669" type="line" smooth="yes"/>
      <point x="41" y="652"/>
      <point x="37" y="641"/>
      <point x="34" y="624" type="curve"/>
    </contour>
  </outline>
</glyph>
<glyph name="commaaccentcomb" format="1">
  <advance width="0"/>
  <unicode hex="0326"/>
  <outline>
    <contour>
      <point x="-80" y="0" type="move" name="_bottom"/>
    </contour>
    <contour>
      <point x="-31" y="-102" type="line"/>
      <point x="-26" y="-72"/>
      <point x="-43" y="-56"/>
      <point x="-78" y="-56" type="curve" smooth="yes"/>
      <point x="-108" y="-56"/>
      <point x="-120" y="-68"/>
      <point x="-124" y="-93" type="curve" smooth="yes"/>
      <point x="-127" y="-113" type="line" smooth="yes"/>
      <point x="-130" y="-134"/>
      <point x="-123" y="-148"/>
      <point x="-103" y="-155" type="curve"/>
      <point x="-129" y="-226" type="line"/>
      <point x="-77" y="-226" type="line"/>
      <point x="-49" y="-167" type="line" smooth="yes"/>
      <point x="-41" y="-150"/>
      <point x="-37" y="-139"/>
      <point x="-34" y="-122" type="curve" smooth="yes"/>
    </contour>
  </outline>
</glyph>
<glyph name="pi" format="1">
  <advance width="534"/>
  <unicode hex="03C0"/>
  <outline>
    <contour>
      <point x="534" y="488" type="line"/>
      <point x="160" y="488" type="line" smooth="yes"/>
      <point x="118" y="488"/>
      <point x="67" y="482"/>
      <point x="41" y="474" type="curve"/>
      <point x="31" y="404" type="line"/>
      <point x="53" y="412"/>
      <point x="85" y="418"/>
      <point x="105" y="418" type="curve" smooth="yes"/>
      <point x="108" y="418" type="line"/>
      <point x="50" y="0" type="line"/>
      <point x="135" y="0" type="line"/>
      <point x="193" y="418" type="line"/>
      <point x="369" y="418" type="line"/>
      <point x="328" y="128" type="line" smooth="yes"/>
      <point x="314" y="31"/>
      <point x="348" y="-12"/>
      <point x="419" y="-12" type="curve" smooth="yes"/>
      <point x="443" y="-12"/>
      <point x="467" y="-6"/>
      <point x="483" y="-1" type="curve"/>
      <point x="492" y="66" type="line"/>
      <point x="478" y="61"/>
      <point x="460" y="57"/>
      <point x="447" y="57" type="curve" smooth="yes"/>
      <point x="416" y="57"/>
      <point x="406" y="68"/>
      <point x="411" y="106" type="curve" smooth="yes"/>
      <point x="454" y="418" type="line"/>
      <point x="524" y="418" type="line"/>
    </contour>
  </outline>
</glyph>
<glyph name="endash" format="1">
  <advance width="610"/>
  <unicode hex="2013"/>
  <outline>
    <contour>
      <point x="551" y="328" type="line"/>
      <point x="71" y="328" type="line"/>
      <point x="61" y="263" type="line"/>
      <point x="541" y="263" type="line"/>
    </contour>
  </outline>
</glyph>
<glyph name="emdash" format="1">
  <advance width="710"/>
  <unicode hex="2014"/>
  <outline>
    <contour>
      <point x="651" y="328" type="line"/>
      <point x="71" y="328" type="line"/>
      <point x="61" y="263" type="line"/>
      <point x="641" y="263" type="line"/>
    </contour>
  </outline>
</glyph>
<glyph name="quoteleft" format="1">
  <advance width="217"/>
  <unicode hex="2018"/>
  <outline>
    <contour>
      <point x="210" y="695" type="line"/>
      <point x="151" y="695" type="line"/>
      <point x="108" y="607" type="line" smooth="yes"/>
      <point x="100" y="591"/>
      <point x="97" y="580"/>
      <point x="94" y="561" type="curve" smooth="yes"/>
      <point x="90" y="531" type="line" smooth="yes"/>
      <point x="86" y="502"/>
      <point x="105" y="482"/>
      <point x="140" y="482" type="curve" smooth="yes"/>
      <point x="174" y="482"/>
      <point x="193" y="492"/>
      <point x="197" y="521" type="curve" smooth="yes"/>
      <point x="201" y="548" type="line" smooth="yes"/>
      <point x="204" y="571"/>
      <point x="193" y="590"/>
      <point x="173" y="596" type="curve"/>
    </contour>
  </outline>
</glyph>
<glyph name="quoteright" format="1">
  <advance width="217"/>
  <unicode hex="2019"/>
  <outline>
    <contour>
      <point x="164" y="695" type="curve" smooth="yes"/>
      <point x="130" y="695"/>
      <point x="111" y="685"/>
      <point x="107" y="656" type="curve" smooth="yes"/>
      <point x="103" y="629" type="line" smooth="yes"/>
      <point x="100" y="606"/>
      <point x="111" y="587"/>
      <point x="131" y="581" type="curve"/>
      <point x="94" y="482" type="line"/>
      <point x="153" y="482" type="line"/>
      <point x="196" y="570" type="line" smooth="yes"/>
      <point x="204" y="586"/>
      <point x="207" y="597"/>
      <point x="210" y="616" type="curve"/>
      <point x="214" y="646" type="line"/>
      <point x="218" y="675"/>
      <point x="199" y="695"/>
    </contour>
  </outline>
</glyph>
<glyph name="quotesinglbase" format="1">
  <advance width="217"/>
  <unicode hex="201A"/>
  <outline>
    <contour>
      <point x="80" y="105" type="curve" smooth="yes"/>
      <point x="46" y="105"/>
      <point x="27" y="95"/>
      <point x="23" y="66" type="curve" smooth="yes"/>
      <point x="19" y="39" type="line" smooth="yes"/>
      <point x="16" y="16"/>
      <point x="27" y="-3"/>
      <point x="47" y="-9" type="curve"/>
      <point x="10" y="-108" type="line"/>
      <point x="69" y="-108" type="line"/>
      <point x="112" y="-20" type="line" smooth="yes"/>
      <point x="120" y="-4"/>
      <point x="123" y="7"/>
      <point x="126" y="26" type="curve" smooth="yes"/>
      <point x="130" y="56" type="line" smooth="yes"/>
      <point x="134" y="85"/>
      <point x="115" y="105"/>
    </contour>
  </outline>
</glyph>
<glyph name="quotedblleft" format="1">
  <advance width="362"/>
  <unicode hex="201C"/>
  <outline>
    <contour>
      <point x="352" y="695" type="line"/>
      <point x="293" y="695" type="line"/>
      <point x="250" y="607" type="line" smooth="yes"/>
      <point x="242" y="591"/>
      <point x="239" y="580"/>
      <point x="236" y="561" type="curve" smooth="yes"/>
      <point x="232" y="531" type="line" smooth="yes"/>
      <point x="228" y="502"/>
      <point x="247" y="482"/>
      <point x="282" y="482" type="curve" smooth="yes"/>
      <point x="316" y="482"/>
      <point x="335" y="492"/>
      <point x="339" y="521" type="curve" smooth="yes"/>
      <point x="343" y="548" type="line" smooth="yes"/>
      <point x="346" y="571"/>
      <point x="335" y="590"/>
      <point x="315" y="596" type="curve"/>
    </contour>
    <contour>
      <point x="210" y="695" type="line"/>
      <point x="151" y="695" type="line"/>
      <point x="108" y="607" type="line" smooth="yes"/>
      <point x="100" y="591"/>
      <point x="97" y="580"/>
      <point x="94" y="561" type="curve" smooth="yes"/>
      <point x="90" y="531" type="line" smooth="yes"/>
      <point x="86" y="502"/>
      <point x="105" y="482"/>
      <point x="140" y="482" type="curve" smooth="yes"/>
      <point x="174" y="482"/>
      <point x="193" y="492"/>
      <point x="197" y="521" type="curve" smooth="yes"/>
      <point x="201" y="548" type="line" smooth="yes"/>
      <point x="204" y="571"/>
      <point x="193" y="590"/>
      <point x="173" y="596" type="curve"/>
    </contour>
  </outline>
</glyph>
<glyph name="dagger" format="1">
  <advance width="419"/>
  <unicode hex="2020"/>
  <outline>
    <contour>
      <point x="304" y="655" type="line"/>
      <point x="219" y="655" type="line"/>
      <point x="195" y="488" type="line"/>
      <point x="43" y="488" type="line"/>
      <point x="32" y="408" type="line"/>
      <point x="184" y="408" type="line"/>
      <point x="127" y="0" type="line"/>
      <point x="212" y="0" type="line"/>
      <point x="269" y="408" type="line"/>
      <point x="421" y="408" type="line"/>
      <point x="432" y="488" type="line"/>
      <point x="280" y="488" type="line"/>
    </contour>
  </outline>
</glyph>
<glyph name="daggerdbl" format="1">
  <advance width="439"/>
  <unicode hex="2021"/>
  <outline>
    <contour>
      <point x="314" y="655" type="line"/>
      <point x="229" y="655" type="line"/>
      <point x="205" y="488" type="line"/>
      <point x="53" y="488" type="line"/>
      <point x="42" y="408" type="line"/>
      <point x="194" y="408" type="line"/>
      <point x="174" y="268" type="line"/>
      <point x="22" y="268" type="line"/>
      <point x="11" y="188" type="line"/>
      <point x="163" y="188" type="line"/>
      <point x="137" y="0" type="line"/>
      <point x="222" y="0" type="line"/>
      <point x="248" y="188" type="line"/>
      <point x="400" y="188" type="line"/>
      <point x="411" y="268" type="line"/>
      <point x="259" y="268" type="line"/>
      <point x="279" y="408" type="line"/>
      <point x="431" y="408" type="line"/>
      <point x="442" y="488" type="line"/>
      <point x="290" y="488" type="line"/>
    </contour>
  </outline>
</glyph>
<glyph name="guilsinglleft" format="1">
  <advance width="318"/>
  <unicode hex="2039"/>
  <outline>
    <contour>
      <point x="281" y="438" type="line"/>
      <point x="193" y="438" type="line"/>
      <point x="69" y="268" type="line"/>
      <point x="145" y="98" type="line"/>
      <point x="233" y="98" type="line"/>
      <point x="164" y="268" type="line"/>
    </contour>
  </outline>
</glyph>
<glyph name="guilsinglright" format="1">
  <advance width="318"/>
  <unicode hex="203A"/>
  <outline>
    <contour>
      <point x="181" y="438" type="line"/>
      <point x="93" y="438" type="line"/>
      <point x="162" y="268" type="line"/>
      <point x="45" y="98" type="line"/>
      <point x="133" y="98" type="line"/>
      <point x="257" y="268" type="line"/>
    </contour>
  </outline>
</glyph>
<glyph name="fraction" format="1">
  <advance width="380"/>
  <unicode hex="2044"/>
  <outline>
    <contour>
      <point x="-44" y="0" type="line"/>
      <point x="39" y="0" type="line"/>
      <point x="428" y="601" type="line"/>
      <point x="345" y="601" type="line"/>
    </contour>
  </outline>
</glyph>
<glyph name="trademark" format="1">
  <advance width="773"/>
  <unicode hex="2122"/>
  <outline>
    <contour>
      <point x="781" y="683" type="line"/>
      <point x="695" y="683" type="line"/>
      <point x="661" y="606"/>
      <point x="621" y="525"/>
      <point x="580" y="450" type="curve"/>
      <point x="565" y="527"/>
      <point x="547" y="608"/>
      <point x="527" y="683" type="curve"/>
      <point x="448" y="683" type="line"/>
      <point x="395" y="350" type="line"/>
      <point x="464" y="350" type="line"/>
      <point x="497" y="558" type="line"/>
      <point x="537" y="381" type="line"/>
      <point x="607" y="381" type="line"/>
      <point x="698" y="558" type="line"/>
      <point x="668" y="350" type="line"/>
      <point x="737" y="350" type="line"/>
    </contour>
    <contour>
      <point x="396" y="683" type="line"/>
      <point x="100" y="683" type="line"/>
      <point x="92" y="625" type="line"/>
      <point x="204" y="625" type="line"/>
      <point x="166" y="350" type="line"/>
      <point x="239" y="350" type="line"/>
      <point x="277" y="625" type="line"/>
      <point x="388" y="625" type="line"/>
    </contour>
  </outline>
</glyph>
<glyph name="uni2126" format="1">
  <advance width="576"/>
  <unicode hex="2126"/>
  <outline>
    <contour>
      <point x="99" y="655" type="move" name="topleft"/>
    </contour>
    <contour>
      <point x="323" y="667" type="curve" smooth="yes"/>
      <point x="170" y="667"/>
      <point x="106" y="599"/>
      <point x="89" y="457" type="curve" smooth="yes"/>
      <point x="63" y="246" type="line" smooth="yes"/>
      <point x="53" y="166"/>
      <point x="67" y="116"/>
      <point x="104" y="80" type="curve"/>
      <point x="38" y="80" type="line"/>
      <point x="30" y="0" type="line"/>
      <point x="230" y="0" type="line"/>
      <point x="236" y="77" type="line"/>
      <point x="227" y="77" type="line" smooth="yes"/>
      <point x="173" y="77"/>
      <point x="138" y="126"/>
      <point x="147" y="216" type="curve" smooth="yes"/>
      <point x="173" y="465" type="line" smooth="yes"/>
      <point x="182" y="549"/>
      <point x="230" y="592"/>
      <point x="318" y="592" type="curve" smooth="yes"/>
      <point x="401" y="592"/>
      <point x="451" y="545"/>
      <point x="441" y="455" type="curve" smooth="yes"/>
      <point x="412" y="206" type="line" smooth="yes"/>
      <point x="403" y="124"/>
      <point x="359" y="77"/>
      <point x="301" y="77" type="curve" smooth="yes"/>
      <point x="292" y="77" type="line"/>
      <point x="286" y="0" type="line"/>
      <point x="486" y="0" type="line"/>
      <point x="493" y="80" type="line"/>
      <point x="428" y="80" type="line"/>
      <point x="473" y="121"/>
      <point x="490" y="163"/>
      <point x="499" y="236" type="curve" smooth="yes"/>
      <point x="525" y="444" type="line" smooth="yes"/>
      <point x="542" y="581"/>
      <point x="472" y="667"/>
    </contour>
  </outline>
</glyph>
<glyph name="partialdiff" format="1">
  <advance width="461"/>
  <unicode hex="2202"/>
  <outline>
    <contour>
      <point x="143" y="631" type="line"/>
      <point x="275" y="631"/>
      <point x="352" y="543"/>
      <point x="330" y="386" type="curve" smooth="yes"/>
      <point x="326" y="361" type="line"/>
      <point x="296" y="415"/>
      <point x="247" y="439"/>
      <point x="202" y="439" type="curve" smooth="yes"/>
      <point x="120" y="439"/>
      <point x="70" y="393"/>
      <point x="55" y="282" type="curve" smooth="yes"/>
      <point x="39" y="167" type="line" smooth="yes"/>
      <point x="22" y="51"/>
      <point x="78" y="-12"/>
      <point x="199" y="-12" type="curve" smooth="yes"/>
      <point x="313" y="-12"/>
      <point x="368" y="48"/>
      <point x="384" y="165" type="curve" smooth="yes"/>
      <point x="408" y="335" type="line" smooth="yes"/>
      <point x="441" y="571"/>
      <point x="349" y="695"/>
      <point x="152" y="695" type="curve"/>
    </contour>
    <contour>
      <point x="213" y="363" type="curve" smooth="yes"/>
      <point x="249" y="363"/>
      <point x="290" y="336"/>
      <point x="315" y="281" type="curve"/>
      <point x="296" y="148" type="line" smooth="yes"/>
      <point x="288" y="90"/>
      <point x="261" y="59"/>
      <point x="201" y="59" type="curve" smooth="yes"/>
      <point x="144" y="59"/>
      <point x="112" y="91"/>
      <point x="120" y="152" type="curve" smooth="yes"/>
      <point x="136" y="264" type="line" smooth="yes"/>
      <point x="146" y="337"/>
      <point x="174" y="363"/>
    </contour>
  </outline>
</glyph>
<glyph name="uni2206" format="1">
  <advance width="522"/>
  <unicode hex="2206"/>
  <outline>
    <contour>
      <point x="350" y="655" type="line"/>
      <point x="249" y="655" type="line"/>
      <point x="3" y="57" type="line"/>
      <point x="-5" y="0" type="line"/>
      <point x="469" y="0" type="line"/>
      <point x="474" y="57" type="line"/>
    </contour>
    <contour>
      <point x="289" y="577" type="curve"/>
      <point x="328" y="407"/>
      <point x="358" y="250"/>
      <point x="380" y="76" type="curve"/>
      <point x="93" y="76" type="line"/>
      <point x="168" y="247"/>
      <point x="234" y="417"/>
    </contour>
  </outline>
</glyph>
<glyph name="product" format="1">
  <advance width="575"/>
  <unicode hex="220F"/>
  <outline>
    <contour>
      <point x="624" y="655" type="line"/>
      <point x="40" y="655" type="line"/>
      <point x="29" y="575" type="line"/>
      <point x="118" y="575" type="line"/>
      <point x="26" y="-185" type="line"/>
      <point x="110" y="-185" type="line"/>
      <point x="203" y="575" type="line"/>
      <point x="438" y="575" type="line"/>
      <point x="345" y="-185" type="line"/>
      <point x="430" y="-185" type="line"/>
      <point x="523" y="575" type="line"/>
      <point x="613" y="575" type="line"/>
    </contour>
  </outline>
</glyph>
<glyph name="summation" format="1">
  <advance width="399"/>
  <unicode hex="2211"/>
  <outline>
    <contour>
      <point x="437" y="655" type="line"/>
      <point x="48" y="655" type="line"/>
      <point x="39" y="588" type="line"/>
      <point x="205" y="238" type="line"/>
      <point x="-46" y="-118" type="line"/>
      <point x="-55" y="-185" type="line"/>
      <point x="333" y="-185" type="line"/>
      <point x="342" y="-108" type="line"/>
      <point x="59" y="-108" type="line"/>
      <point x="284" y="217" type="line"/>
      <point x="288" y="256" type="line"/>
      <point x="135" y="578" type="line"/>
      <point x="427" y="578" type="line"/>
    </contour>
  </outline>
</glyph>
<glyph name="minus" format="1">
  <advance width="390"/>
  <unicode hex="2212"/>
  <outline>
    <contour>
      <point x="379" y="335" type="line"/>
      <point x="25" y="335" type="line"/>
      <point x="15" y="265" type="line"/>
      <point x="369" y="265" type="line"/>
    </contour>
  </outline>
</glyph>
<glyph name="uni2215" format="1">
  <advance width="275"/>
  <unicode hex="2215"/>
  <outline>
    <contour>
      <point x="335" y="683" type="line"/>
      <point x="250" y="683" type="line"/>
      <point x="-50" y="0" type="line"/>
      <point x="35" y="0" type="line"/>
    </contour>
  </outline>
</glyph>
<glyph name="radical" format="1">
  <advance width="480"/>
  <unicode hex="221A"/>
  <outline>
    <contour>
      <point x="615" y="683" type="line"/>
      <point x="465" y="683" type="line"/>
      <point x="382" y="474"/>
      <point x="288" y="267"/>
      <point x="183" y="62" type="curve"/>
      <point x="170" y="204"/>
      <point x="154" y="346"/>
      <point x="133" y="488" type="curve"/>
      <point x="48" y="488" type="line"/>
      <point x="124" y="0" type="line"/>
      <point x="234" y="0" type="line"/>
      <point x="522" y="613" type="line"/>
      <point x="606" y="613" type="line"/>
    </contour>
  </outline>
</glyph>
<glyph name="infinity" format="1">
  <advance width="517"/>
  <unicode hex="221E"/>
  <outline>
    <contour>
      <point x="384" y="432" type="curve" smooth="yes"/>
      <point x="336" y="432"/>
      <point x="303" y="412"/>
      <point x="277" y="383" type="curve"/>
      <point x="259" y="412"/>
      <point x="219" y="432"/>
      <point x="171" y="432" type="curve" smooth="yes"/>
      <point x="74" y="432"/>
      <point x="22" y="386"/>
      <point x="15" y="306" type="curve" smooth="yes"/>
      <point x="14" y="295" type="line" smooth="yes"/>
      <point x="7" y="214"/>
      <point x="48" y="161"/>
      <point x="145" y="161" type="curve" smooth="yes"/>
      <point x="193" y="161"/>
      <point x="226" y="181"/>
      <point x="252" y="210" type="curve"/>
      <point x="270" y="181"/>
      <point x="308" y="161"/>
      <point x="356" y="161" type="curve" smooth="yes"/>
      <point x="453" y="161"/>
      <point x="501" y="207"/>
      <point x="512" y="287" type="curve"/>
      <point x="513" y="298" type="line" smooth="yes"/>
      <point x="520" y="379"/>
      <point x="481" y="432"/>
    </contour>
    <contour>
      <point x="164" y="362" type="curve" smooth="yes"/>
      <point x="208" y="362"/>
      <point x="225" y="340"/>
      <point x="222" y="302" type="curve" smooth="yes"/>
      <point x="221" y="291" type="line" smooth="yes"/>
      <point x="218" y="253"/>
      <point x="196" y="231"/>
      <point x="152" y="231" type="curve" smooth="yes"/>
      <point x="108" y="231"/>
      <point x="92" y="253"/>
      <point x="95" y="291" type="curve" smooth="yes"/>
      <point x="96" y="302" type="line" smooth="yes"/>
      <point x="99" y="340"/>
      <point x="120" y="362"/>
    </contour>
    <contour>
      <point x="375" y="362" type="curve" smooth="yes"/>
      <point x="419" y="362"/>
      <point x="436" y="340"/>
      <point x="433" y="302" type="curve" smooth="yes"/>
      <point x="432" y="291" type="line" smooth="yes"/>
      <point x="429" y="253"/>
      <point x="407" y="231"/>
      <point x="363" y="231" type="curve" smooth="yes"/>
      <point x="319" y="231"/>
      <point x="303" y="253"/>
      <point x="306" y="291" type="curve" smooth="yes"/>
      <point x="307" y="302" type="line" smooth="yes"/>
      <point x="310" y="340"/>
      <point x="331" y="362"/>
    </contour>
  </outline>
</glyph>
<glyph name="lessequal" format="1">
  <advance width="390"/>
  <unicode hex="2264"/>
  <outline>
    <contour>
      <point x="404" y="494" type="line"/>
      <point x="21" y="334" type="line"/>
      <point x="11" y="259" type="line"/>
      <point x="348" y="99" type="line"/>
      <point x="360" y="182" type="line"/>
      <point x="100" y="297" type="line"/>
      <point x="392" y="411" type="line"/>
    </contour>
    <contour>
      <point x="344" y="70" type="line"/>
      <point x="-16" y="70" type="line"/>
      <point x="-25" y="0" type="line"/>
      <point x="335" y="0" type="line"/>
    </contour>
  </outline>
</glyph>
<glyph name="greaterequal" format="1">
  <advance width="390"/>
  <unicode hex="2265"/>
  <outline>
    <contour>
      <point x="44" y="494" type="line"/>
      <point x="32" y="411" type="line"/>
      <point x="292" y="297" type="line"/>
      <point x="0" y="182" type="line"/>
      <point x="-12" y="99" type="line"/>
      <point x="371" y="259" type="line"/>
      <point x="381" y="334" type="line"/>
    </contour>
    <contour>
      <point x="344" y="70" type="line"/>
      <point x="-16" y="70" type="line"/>
      <point x="-25" y="0" type="line"/>
      <point x="335" y="0" type="line"/>
    </contour>
  </outline>
</glyph>
<glyph name="acute.case" format="1">
  <advance width="227"/>
  <outline>
    <contour>
      <point x="74" y="655" type="move" name="_top"/>
    </contour>
    <contour>
      <point x="100" y="710" type="line"/>
      <point x="197" y="829" type="line"/>
      <point x="108" y="829" type="line"/>
      <point x="30" y="710" type="line"/>
    </contour>
  </outline>
</glyph>
<glyph name="breve.case" format="1">
  <advance width="349"/>
  <outline>
    <contour>
      <point x="175" y="655" type="move" name="_top"/>
    </contour>
    <contour>
      <point x="319" y="830" type="line"/>
      <point x="319" y="830"/>
      <point x="243" y="777"/>
      <point x="174" y="777" type="curve" smooth="yes"/>
      <point x="104" y="777"/>
      <point x="39" y="830"/>
      <point x="39" y="830" type="curve"/>
      <point x="30" y="752" type="line"/>
      <point x="30" y="752"/>
      <point x="89" y="705"/>
      <point x="166" y="705" type="curve" smooth="yes"/>
      <point x="239" y="705"/>
      <point x="310" y="752"/>
      <point x="310" y="752" type="curve"/>
    </contour>
  </outline>
</glyph>
<glyph name="caron.alt" format="1">
  <advance width="79"/>
  <outline>
    <contour>
      <point x="79" y="488" type="move" name="_topleft"/>
    </contour>
    <contour>
      <point x="128" y="649" type="line"/>
      <point x="133" y="679"/>
      <point x="116" y="695"/>
      <point x="81" y="695" type="curve" smooth="yes"/>
      <point x="51" y="695"/>
      <point x="39" y="683"/>
      <point x="35" y="658" type="curve" smooth="yes"/>
      <point x="32" y="638" type="line" smooth="yes"/>
      <point x="29" y="617"/>
      <point x="36" y="603"/>
      <point x="56" y="596" type="curve"/>
      <point x="30" y="525" type="line"/>
      <point x="82" y="525" type="line"/>
      <point x="110" y="584" type="line" smooth="yes"/>
      <point x="118" y="601"/>
      <point x="122" y="612"/>
      <point x="125" y="629" type="curve" smooth="yes"/>
    </contour>
  </outline>
</glyph>
<glyph name="caron.case" format="1">
  <advance width="348"/>
  <outline>
    <contour>
      <point x="174" y="655" type="move" name="_top"/>
    </contour>
    <contour>
      <point x="173" y="792" type="line"/>
      <point x="38" y="841" type="line"/>
      <point x="30" y="773" type="line"/>
      <point x="164" y="712" type="line"/>
      <point x="310" y="773" type="line"/>
      <point x="318" y="841" type="line"/>
    </contour>
  </outline>
</glyph>
<glyph name="circumflex.case" format="1">
  <advance width="347"/>
  <outline>
    <contour>
      <point x="174" y="655" type="move" name="_top"/>
    </contour>
    <contour>
      <point x="30" y="711" type="line"/>
      <point x="175" y="760" type="line"/>
      <point x="310" y="711" type="line"/>
      <point x="317" y="779" type="line"/>
      <point x="184" y="840" type="line"/>
      <point x="37" y="779" type="line"/>
    </contour>
  </outline>
</glyph>
<glyph name="grave.case" format="1">
  <advance width="203"/>
  <outline>
    <contour>
      <point x="144" y="655" type="move" name="_top"/>
    </contour>
    <contour>
      <point x="30" y="829" type="line"/>
      <point x="103" y="710" type="line"/>
      <point x="173" y="710" type="line"/>
      <point x="119" y="829" type="line"/>
    </contour>
  </outline>
</glyph>
<glyph name="hungarumlaut.case" format="1">
  <advance width="352"/>
  <outline>
    <contour>
      <point x="166" y="655" type="move" name="_top"/>
    </contour>
    <contour>
      <point x="245" y="710" type="line"/>
      <point x="322" y="829" type="line"/>
      <point x="242" y="829" type="line"/>
      <point x="170" y="710" type="line"/>
    </contour>
    <contour>
      <point x="105" y="710" type="line"/>
      <point x="182" y="829" type="line"/>
      <point x="102" y="829" type="line"/>
      <point x="30" y="710" type="line"/>
    </contour>
  </outline>
</glyph>
<glyph name="macron.case" format="1">
  <advance width="305"/>
  <outline>
    <contour>
      <point x="153" y="655" type="move" name="_top"/>
    </contour>
    <contour>
      <point x="30" y="710" type="line"/>
      <point x="265" y="710" type="line"/>
      <point x="275" y="785" type="line"/>
      <point x="40" y="785" type="line"/>
    </contour>
  </outline>
</glyph>
